<svg height="720" preserveAspectRatio="none" viewBox="0 0 1 1" width="720" xmlns="http://www.w3.org/2000/svg"><path d="m.00740738.50000001.00064098-.02535802.00190222-.02501234.00313235-.02464198.00433185-.0242716.00550025-.02382717.00663802-.02335802.00774321-.02288889.00881976-.02237037.0098642-.02182716.01087901-.02123457.01186172-.02064198.01281235-.01997529.01373333-.01930866.01462223-.01861727.01548395-.01787654.01630864-.01711112.01710865-.0162963.0178716-.01548147.01860987-.01464198.01931111-.01372839.01998765-.01281482.02063951-.01185185.02123457-.01088888.02180246-.00985186.02237038-.00881482.02288889-.00775308.02338271-.00664197.02382716-.00550619.0242716-.00432098.02464198-.0031358.02501234-.00190123.02535803-.00064198c.27204938 0 .49259258.2205432.49259258.49259258 0 .27205926-.2205432.49259259-.49259258.49259259-.27205925 0-.49259258-.22053333-.49259258-.49259259z" fill="#fff"/><path d="m.00740738.50000001.00064098-.02535802.00190222-.02501234.00313235-.02464198.00433185-.0242716.00550025-.02382717.00663802-.02335802.00774321-.02288889.00881976-.02237037.0098642-.02182716.01087901-.02123457.01186172-.02064198.01281235-.01997529.01373333-.01930866.01462223-.01861727.01548395-.01787654.01630864-.01711112.01710865-.0162963.0178716-.01548147.01860987-.01464198.01931111-.01372839.01998765-.01281482.02063951-.01185185.02123457-.01088888.02180246-.00985186.02237038-.00881482.02288889-.00775308.02338271-.00664197.02382716-.00550619.0242716-.00432098.02464198-.0031358.02501234-.00190123.02535803-.00064198c.27204938 0 .49259258.2205432.49259258.49259258 0 .27205926-.2205432.49259259-.49259258.49259259-.27205925 0-.49259258-.22053333-.49259258-.49259259z" fill="none" stroke="#000" stroke-miterlimit="10.433" stroke-width=".014815"/><path d="m.11736046.49972841.0004963-.01958024.00146913-.01930865.00241975-.01906173.00334569-.01871605.00424691-.01841975.00512839-.01804938.00598024-.01767901.00681235-.01728395.00761976-.0168642.00840247-.01639507.00916296-.01592592.00989629-.01545679.01060742-.01491358.01129382-.01437036.0119605-.01380247.01259752-.01320989.01321235-.01259259.01381481-.0119753.01437037-.01128396.01491359-.01061728.01543209-.00987654.01592593-.00918518.01641975-.00839507.0168395-.00760494.01728395-.00681482.01767902-.00599999.01804938-.00511112.01841976-.00424691.01874074-.00335801.01903704-.00241976.01933333-.00145679.01955555-.00049383c.21014814 0 .38049382.17034568.38049382.38046913 0 .21014814-.17034568.380479-.38049382.380479-.21012345 0-.38046666-.17033086-.38046666-.380479z" fill="#053a82"/><path d="m.11736046.49972841.0004963-.01958024.00146913-.01930865.00241975-.01906173.00334569-.01871605.00424691-.01841975.00512839-.01804938.00598024-.01767901.00681235-.01728395.00761976-.0168642.00840247-.01639507.00916296-.01592592.00989629-.01545679.01060742-.01491358.01129382-.01437036.0119605-.01380247.01259752-.01320989.01321235-.01259259.01381481-.0119753.01437037-.01128396.01491359-.01061728.01543209-.00987654.01592593-.00918518.01641975-.00839507.0168395-.00760494.01728395-.00681482.01767902-.00599999.01804938-.00511112.01841976-.00424691.01874074-.00335801.01903704-.00241976.01933333-.00145679.01955555-.00049383c.21014814 0 .38049382.17034568.38049382.38046913 0 .21014814-.17034568.380479-.38049382.380479-.21012345 0-.38046666-.17033086-.38046666-.380479z" fill="none" stroke="#000" stroke-miterlimit="10.433" stroke-width=".014815"/><path d="m.33609873.50382717h.00064198.00106172.00148148.00190124.00229629.00266667.00303704.00338272.00372839.00404938.00434568.00466667.00491358.00520988.00543209.00567902.01202469.01279011.0134568.014.01441975.01474075.02999999.01501235.01486419.01464199.0142469.01375309.01318518.01246914.01162963.00545679.00523456.00496297.00466666.00439507.00407407.00375309.0034321.00308642.00271604.002321.00195061.00153087.0011111.00069137.00022222l-.01698766.02066667-.00276543.24313828-.01570371.03075801-.07491357.01512347-.03311111.00758023-.01629629.01680247-.0028889.00585433-.01106173-.01685926-.02207407-.00990618-.03365431-.00579752-.0354568-.00520742-.02965432-.01164197-.01217283-.01743704-.00525927-.03951852.00180246-.15158024-.00123456-.05925926s-.02259259-.02271605-.01390123-.02271605z" fill="#fda65e"/><path d="m.33609873.50382717h.00064198.00106172.00148148.00190124.00229629.00266667.00303704.00338272.00372839.00404938.00434568.00466667.00491358.00520988.00543209.00567902.01202469.01279011.0134568.014.01441975.01474075.02999999.01501235.01486419.01464199.0142469.01375309.01318518.01246914.01162963.00545679.00523456.00496297.00466666.00439507.00407407.00375309.0034321.00308642.00271604.002321.00195061.00153087.0011111.00069137.00022222l-.01698766.02066667-.00276543.24313828-.01570371.03075801-.07491357.01512347-.03311111.00758023-.01629629.01680247-.0028889.00585433-.01106173-.01685926-.02207407-.00990618-.03365431-.00579752-.0354568-.00520742-.02965432-.01164197-.01217283-.01743704-.00525927-.03951852.00180246-.15158024-.00123456-.05925926s-.02259259-.02271605-.01390123-.02271605z" fill="none" stroke="#fda65e" stroke-miterlimit="10.433" stroke-width=".002469"/><path d="m142.34 160.36h117.49v-41.46h-117.49z" fill="#ff284f" transform="matrix(.00246914 0 0 -.00246914 0 1)"/><path d="m142.34 118.9h117.49v41.46h-117.49z" fill="none" stroke="#ff284f" stroke-miterlimit="10.433" transform="matrix(.00246914 0 0 -.00246914 0 1)"/><path d="m.44777775.58348149h.00009876.00022222.00034567.00051852.00061729.00076543.00088888.00101236.0011111.00123457.00135803.00143209.00153088.00162962.00172839.00180248.00382716.00409877.00437036.00454322.00474073.00486421.00493827.00503703.01004938.00498766.00488889.00476543.00461728.00441976.00419753.00392593.00185184.00175309.00167901.00160493.00150619.00138271.00130863.00118519.00108643.00096296.0008395.00069136.00059259.00044445c-.00004938-.00760494.00002469-.0048148 0-.00950616-.00767901-.00125927-.01617285-.00271605-.01590124-.0177284.00027161-.01555556.01846913-.01669136.02960494-.01671605-.00002469-.01303704 0-.00706174 0-.01111111-.02476543-.00002469-.144-.00002469-.15718518-.00002469.00214814.0102963.01533333.01829629.02908642.01891358.00804938.00034567.02133333.00007407.0262716.00533333.00338272.00385185.00419753.01041975.00017285.01520988-.00345679.00409876-.02353088.00256789-.02353088.00291358 0 0 .00002471.01271604.00002471.01271604z" fill="none" stroke="#000" stroke-miterlimit="10.433" stroke-width=".007407"/><path d="m214.99 129.16h-30.28l30.18 20.62" fill="none" stroke="#000" stroke-miterlimit="10.433" stroke-width="3" transform="matrix(.00246914 0 0 -.00246914 0 1)"/><path d="m211.93 129.27-8.18 11.93-7.49-12.04" fill="none" stroke="#000" stroke-miterlimit="10.433" stroke-width="3" transform="matrix(.00246914 0 0 -.00246914 0 1)"/><path d="m.353605.603679h.290321" fill="none" stroke="#000" stroke-miterlimit="10.433" stroke-width=".009877"/><path d="m.354667.707185h.290345" fill="none" stroke="#000" stroke-miterlimit="10.433" stroke-width=".009877"/><path d="m.33101231.5049136h.00088889.00128394.00167902.00202469.00237037.00274074.00303703l.00338272-.00002469h.00367902.00397531.00424691.00451852.00476543.00503703l.01071606-.00002469h.01155555.0122716l.01288889-.00002469h.01343211l.01387654-.00002471h.01419752l.02901235-.00002469.02913581-.00002469h.01439505l.01412347-.00002469h.01377777l.01330864-.00002469h.01274075l.01209876-.00002469h.01135803l.01049382-.00002469h.00491358.00464198.00439506l.00409876-.00002469h.00382716.00353086.00320988.00291358.00254321l.00222222-.00002469h.00182717.00148148c-.01676543.01022222-.01972839.01772839-.0197037.02444445.00009876.01390123 0 .21133333 0 .22229629 0 .0109679-.0006173.04671358-.03762964.05486419-.03698764.00814815-.08965432 0-.10814813.03574322-.01725926-.03574322-.04795063-.02721729-.09562964-.03386421-.04955555-.00689629-.0514321-.02664937-.0514321-.0567432 0-.03009877 0-.2091358 0-.22229629 0-.0065926-.00664197-.01506173-.02007407-.02414815z" fill="none" stroke="#000" stroke-miterlimit="10.433" stroke-width=".012346"/><path d="m.39881477.64940742v-.00039507l.00004938-.00037036.0000494-.00039507.00004938-.00037036.00009876-.00037038.00009877-.00034567.00012345-.00034568.00012347-.00034568.00014814-.00034568.00017284-.000321.00017284-.00032098.00019752-.00029629.00022223-.0002963.00022222-.00029629.00024691-.0002716.00024692-.00024693.00024691-.0002716.0002716-.00022223.00029631-.00022221.00029629-.00022222.0002963-.00019753.00032098-.00017285.00032098-.00017284.00034569-.00014814.00034568-.00014816.00034568-.00009876.00034568-.00009876.00037037-.00009877.00037037-.00007407.00039506-.00004938.00037037-.0000247h.00039507c.00417284 0 .00755554.00338272.00755554.00755556s-.0033827.00755556-.00755554.00755556c-.00417285 0-.00755557-.00338272-.00755557-.00755556z"/><path d="m.39881477.64940742v-.00039507l.00004938-.00037036.0000494-.00039507.00004938-.00037036.00009876-.00037038.00009877-.00034567.00012345-.00034568.00012347-.00034568.00014814-.00034568.00017284-.000321.00017284-.00032098.00019752-.00029629.00022223-.0002963.00022222-.00029629.00024691-.0002716.00024692-.00024693.00024691-.0002716.0002716-.00022223.00029631-.00022221.00029629-.00022222.0002963-.00019753.00032098-.00017285.00032098-.00017284.00034569-.00014814.00034568-.00014816.00034568-.00009876.00034568-.00009876.00037037-.00009877.00037037-.00007407.00039506-.00004938.00037037-.0000247h.00039507c.00417284 0 .00755554.00338272.00755554.00755556s-.0033827.00755556-.00755554.00755556c-.00417285 0-.00755557-.00338272-.00755557-.00755556z" fill="none" stroke="#000" stroke-miterlimit="10.433" stroke-width=".002469"/><path d="m.40370367.64241977s-.00846914-.01390125.00266667-.02160495" fill="none" stroke="#000" stroke-miterlimit="10.433" stroke-width=".007407"/><path d="m.41111107.64395063s.01185185-.01217284.02274074-.00414815" fill="none" stroke="#000" stroke-miterlimit="10.433" stroke-width=".007407"/><path d="m.41296292.65012347s.01753088.00066667.01814815.01417283" fill="none" stroke="#000" stroke-miterlimit="10.433" stroke-width=".007407"/><path d="m.40893823.65535803s.00607408.01698766-.00632098.02241976" fill="none" stroke="#000" stroke-miterlimit="10.433" stroke-width=".007407"/><path d="m.4021728.65506174s-.00874074.01464197-.02064198.00822222" fill="none" stroke="#000" stroke-miterlimit="10.433" stroke-width=".007407"/><path d="m.40061725.6488889s-.01822222-.00197531-.0174321-.01548148" fill="none" stroke="#000" stroke-miterlimit="10.433" stroke-width=".007407"/><path d="m.37748145.64967902.00002469-.00150617.00012345-.00145679.00017284-.00145679.00024691-.0014074.00032099-.00140741.00039506-.00135803.00044445-.00135802.00051852-.00130864.00059259-.00128396.00064198-.00123457.00069136-.00120988.00074074-.00118517.00081481-.00113581.0008642-.00108641.00088888-.00103704.00096297-.00101236.00101234-.00096296.00103704-.00088888.00111112-.0008642.0011111-.00081482.00118519-.00074074.00120988-.00069136.00123456-.00064196.00128395-.0005926.00130865-.00051852.00135802-.00044445.00135803-.00039505.0014074-.000321.0014321-.00024691.0014321-.00019752.00148148-.00009878.00148149-.00004938c.0159506 0 .02888888.01293828.02888888.02891358 0 .01595062-.01293828.02888889-.02888888.02888889-.01597532 0-.02888889-.01293827-.02888889-.02888889z" fill="none" stroke="#000" stroke-miterlimit="10.433" stroke-width=".007407"/><path d="m.37493824.6820247.00002469-.00029629v-.0002963l.00004938-.00029629.00004938-.00027162.00007407-.00029629.00007409-.0002716.00009875-.00027161.00009876-.0002716.00012347-.00024692.00012345-.00024691.00012346-.00024691.00017285-.00024692.00014814-.00022222.00017284-.00022222.00019753-.00022223.00017283-.00019753.00022223-.00019752.00019753-.00017284.00022222-.00017285.00022223-.00017283.00024691-.00014815.00024691-.00014816.00024692-.00012344.0002716-.00012347.00024691-.00009876.00027161-.00007407.0002716-.00009877.0002963-.00004938.0002963-.00004938.00027161-.00004938.00029629-.00002469h.00029629c.00323457 0 .00585186.00261727.00585186.00582715 0 .00323457-.00261729.00585186-.00585186.00585186-.00320987 0-.00582715-.00261729-.00582715-.00585186z"/><path d="m.42575304.68212347.00002469-.0002963.00002471-.0002963.00002469-.00029629.00004938-.0002716.00007407-.0002963.00007407-.0002716.00009877-.00027162.00009876-.0002716.00012347-.00024692.00012344-.00024691.00014816-.00024691.00014814-.00024692.00014815-.00022222.00017285-.00022221.00019753-.00022222.00017283-.00019754.00022222-.00019753.00019754-.00017284.00022222-.00017283.00022222-.00017285.00024692-.00014815.00024691-.00014814.00024691-.00012346.00027161-.00012345.00024691-.00009878.00027161-.00009876.00029629-.00007407.0002716-.00004938.0002963-.00004939.00027161-.00004938.00032099-.00002469h.00029629c.00320988 0 .00582717.00261729.00582717.00582716 0 .00323457-.00261729.00582716-.00582717.00582716-.00323457 0-.00585186-.00259259-.00585186-.00582716z"/><path d="m.58567897.65461729.00002469-.00029629.00002469-.00029629.00002469-.0002963.00004938-.0002963.00007409-.00027161.00007407-.00029629.00009875-.00027161.00009878-.00024691.00012345-.0002716.00012346-.00024692.00014816-.00024691.00014814-.00022222.00014815-.00024692.00017283-.00022222.00019753-.00019753.00019754-.00019754.00019753-.00019752.00019753-.00019753.00022223-.00017284.0002469-.00014814.00022222-.00014816.00024691-.00014815.00024692-.00012345.00027162-.00012347.00024689-.00009876.00027162-.00009876.0002963-.00007408.0002716-.00007407.00029629-.00004938.00027161-.00002469.00029629-.00002469.000321-.0000247c.00320987 0 .00582715.00261729.00582715.00585185 0 .00320988-.00261728.00582717-.00582715.00582717-.00323457 0-.00585186-.00261729-.00585186-.00582717z"/><path d="m.5456049.63743212v-.000321l.00002469-.00029629.00004938-.00027161.00004938-.00029629.00004938-.0002716.00007409-.00029631.00009876-.00027161.00009877-.00024691.00012345-.0002716.00012345-.00024692.00014815-.00024691.00014816-.00022222.00017283-.00024692.00017284-.00022221.00017284-.00019753.00019754-.00019753.00019752-.00019754.00022222-.00019753.00022222-.00017283.00022223-.00014815.00022222-.00014816.00024692-.00014814.0002716-.00012346.00024691-.00012345.00027161-.00009878.0002716-.00009876.0002716-.00007407.00027162-.00007408.00029629-.00004938.0002963-.00002469.00029629-.00002469.00029629-.00002469c.00323457 0 .00585186.00261728.00585186.00585186 0 .00320987-.00261729.00582715-.00585186.00582715-.00323456 0-.00582715-.00261728-.00582715-.00582715z"/><path d="m.54167898.66622223v-.00029629l.00002469-.0002963.00002469-.00029629.00004937-.00029631.00007409-.0002716.00007407-.0002716.00009876-.00027161.00009877-.0002716.00012345-.00024691.00012347-.00027161.00014814-.00022222.00014815-.00024692.00014814-.00022222.00017284-.00022222.00019754-.00022223.00019753-.00019753.00019753-.00019752.00022221-.00017284.00019754-.00017285.00024691-.00017283.00022222-.00014815.00024692-.00014815.00024691-.00012345.0002716-.00012347.00027161-.00009876.0002716-.00009876.00027162-.00007408.0002716-.00004938.0002963-.00007407.00029629-.00002469.00029629-.00002469h.0002963c.00320987 0 .00582716.00261727.00582716.00582715 0 .00323457-.00261729.00582717-.00582716.00582717-.00323457 0-.00582715-.0025926-.00582715-.00582717z"/><path d="m226.54 129.05h22.92l-22.92 12.73z" fill="none" stroke="#000" stroke-miterlimit="10.433" stroke-width="3" transform="matrix(.00246914 0 0 -.00246914 0 1)"/><path d="m.579951.744864v.012659" fill="none" stroke="#000" stroke-miterlimit="10.433" stroke-width=".007407"/><path d="m.522148.736642v.012642" fill="none" stroke="#000" stroke-miterlimit="10.433" stroke-width=".007407"/><path d="m.39301231.7314568.00034568-.00027161.00041975-.0002716.00046914-.00032099.00054321-.00032098.00056789-.00034569.0006173-.00034567.00064196-.00037038.00071605-.00037036.00074074-.00039507.00079012-.00037036.00081483-.00039507.0008395-.00037036.00088889-.00039507.00088888-.00037038.00093828-.00037036.00096296-.00037038.00098766-.00034567.00101234-.00032098.00101235-.000321.00103703-.0002716.00103705-.00027161.00106172-.00024691.00108642-.00022223.00106174-.00019752.00108641-.00014815.00108641-.00014815.00108643-.00007407.00108642-.00004938h.00106172l.00108643.00002469.00106172.00007407.00103704.00012346c.0148642.00219753.03022223.0324074.03706174.04234321" fill="none" stroke="#000" stroke-miterlimit="10.433" stroke-width=".007407"/><path d="m.44575304.7462963h.00002469l.00002471-.00002469.00012345-.00007407.00019753-.00012345.0002716-.00019753.00037037-.00019754.00041976-.0002716.00049382-.00029629.0005679-.000321.00064198-.00037036.00069136-.00039507.00076543-.00041975.00081481-.00044444.00086421-.00046914.00093827-.00049383.00098766-.00049382.00101234-.00051852.00108641-.00051852.00113581-.00054322.00116049-.00054321.00120987-.0005432.00123457-.00054321.00128395-.00051852.00130865-.0005432.00133333-.00051852.00138272-.00051853.0014074-.00049383.00140741-.00046914.00145679-.00046912.00145679-.00044445.00148148-.00039507.00150618-.00039505.00150617-.00034569c.01619753-.00358024.03535802-.00029629.05659259.00298766.02123456.00325925.06520987.00992592.06520987.00992592" fill="none" stroke="#000" stroke-miterlimit="10.433" stroke-width=".007407"/><path d="m.47962958.75906667s.00355557-.02568395.02567903-.02627653" fill="none" stroke="#000" stroke-miterlimit="10.433" stroke-width=".007407"/><path d="m.45740736.77048643-.00002469.00035556v.00034074l.0000494.00063703.00012345.00058024.00017284.00053088.0002716.00048148.00032099.00043703.00039506.00039754.00044445.00036295.00051852.00033087.00059258.0003037.00064199.00028149.00069136.00025926.00076543.00024691.00081481.00023457.00088889.00022469.00093826.00022469.00098766.00022469.00103705.00022716.00108641.00023951.0011605.00024938.00120986.00026914.00123458.00028641.00130864.00031359.00133333.00034321.00140741.0003753.0014321.00041482.00148148.00045184.00153086.00050124.00155556.00054816.00160494.00059999.00165431.00065927.00167902.00072098c.01150618.00507407.01669136.01265432.01760493.01203704.00570372-.0038.00493827-.00308642.01266668-.00524692 0 0-.02012347-.01154568-.02839506-.02901234-.00279014-.0058642-.03056791.00185184-.0311852.0095679z" fill="none" stroke="#000" stroke-miterlimit="10.433" stroke-width=".007407"/><path d="m.59320983.74669137v-.00032099l.0000247-.00032099.00004938-.0002963.00004938-.00029629.00007407-.00029629.00007409-.0002963.00009876-.00029629.00012346-.00027162.00012345-.0002716.00012346-.00027161.00014814-.00024691.00014816-.00024691.00017283-.00024692.00019753-.00022222.00019753-.00022222.00019754-.00022223.00019753-.00019752.00022221-.00019753.00024693-.00017284.00024691-.00017283.00024692-.00017285.00024691-.00014815.0002716-.00012345.00027161-.00012347.0002716-.00012344.00029629-.00009878.00027161-.00007407.00029629-.00007407.000321-.00004938.00029629-.00004939h.00032098l.0002963-.00002469c.00338272 0 .00614815.00276543.00614815.00614815s-.00276543.00612346-.00614815.00612346c-.00338271 0-.00612346-.00274074-.00612346-.00612346z"/><path d="m.59320983.74669137v-.00032099l.0000247-.00032099.00004938-.0002963.00004938-.00029629.00007407-.00029629.00007409-.0002963.00009876-.00029629.00012346-.00027162.00012345-.0002716.00012346-.00027161.00014814-.00024691.00014816-.00024691.00017283-.00024692.00019753-.00022222.00019753-.00022222.00019754-.00022223.00019753-.00019752.00022221-.00019753.00024693-.00017284.00024691-.00017283.00024692-.00017285.00024691-.00014815.0002716-.00012345.00027161-.00012347.0002716-.00012344.00029629-.00009878.00027161-.00007407.00029629-.00007407.000321-.00004938.00029629-.00004939h.00032098l.0002963-.00002469c.00338272 0 .00614815.00276543.00614815.00614815s-.00276543.00612346-.00614815.00612346c-.00338271 0-.00612346-.00274074-.00612346-.00612346z" fill="none" stroke="#000" stroke-miterlimit="10.433" stroke-width=".001235"/><path d="m.5221728.74392594.00076543.00066667.00074074.00064197.00071605.00061729.00069137.00061727.00066665.0005926.00061729.00059259.00061728.00059259.00061729.00056791.0005679.00054321.00054321.0005432.00051851.00054321.00051853.00051852.00046913.00051851.00046913.00049383.00044445.00049384.00041976.00049383.00039505.00048147.00037038.00046914.00034567.00046172.00034569.00045186.00029629.00044691.0002963.00043951.0002716.00043456.00024691.00042717.00022223.00041976.00022222.00041481.00017285.00040987.00017282.00040494.00014816.0004.00014815.00039507.00009876.00039259.00009876.00038766c.00162964.00759999-.01901234-.00203458-.01997529-.00735557-.0005926-.00323457.00496296-.01004937.00674073-.00851851z"/><path d="m.5221728.74392594.00076543.00066667.00074074.00064197.00071605.00061729.00069137.00061727.00066665.0005926.00061729.00059259.00061728.00059259.00061729.00056791.0005679.00054321.00054321.0005432.00051851.00054321.00051853.00051852.00046913.00051851.00046913.00049383.00044445.00049384.00041976.00049383.00039505.00048147.00037038.00046914.00034567.00046172.00034569.00045186.00029629.00044691.0002963.00043951.0002716.00043456.00024691.00042717.00022223.00041976.00022222.00041481.00017285.00040987.00017282.00040494.00014816.0004.00014815.00039507.00009876.00039259.00009876.00038766c.00162964.00759999-.01901234-.00203458-.01997529-.00735557-.0005926-.00323457.00496296-.01004937.00674073-.00851851z" fill="none" stroke="#000" stroke-miterlimit="10.433" stroke-width=".001235"/><path d="m.57283947.76384939v-.00038765l.00004938-.00038519.00004938-.00037777.00004939-.00037284.00009876-.00036544.00009876-.00035802.00012346-.00035308.00012345-.00034322.00014816-.00033332.00017284-.00032594.00017283-.00031852.00019753-.00030616.00022223-.00029631.00022222-.00028641.00024691-.00027408.00024692-.00026173.00024691-.00025185.0002716-.00023703.0002963-.0002247.00029631-.00020988.00029629-.00019753.00032098-.00018024.00032099-.00016791.00034568-.00015061.00034568-.0001358.00034568-.00011852.00037037-.0001037.00034567-.00008395.00039507-.00006666.00037036-.00004692.00037038-.00002963.00039507-.00000988c.00417282 0 .00755554.00338518.00755554.00756049 0 .00417778-.00338272.00756296-.00755554.00756296-.00417284 0-.00755556-.00338518-.00755556-.00756296z"/><path d="m.57283947.76384939v-.00038765l.00004938-.00038519.00004938-.00037777.00004939-.00037284.00009876-.00036544.00009876-.00035802.00012346-.00035308.00012345-.00034322.00014816-.00033332.00017284-.00032594.00017283-.00031852.00019753-.00030616.00022223-.00029631.00022222-.00028641.00024691-.00027408.00024692-.00026173.00024691-.00025185.0002716-.00023703.0002963-.0002247.00029631-.00020988.00029629-.00019753.00032098-.00018024.00032099-.00016791.00034568-.00015061.00034568-.0001358.00034568-.00011852.00037037-.0001037.00034567-.00008395.00039507-.00006666.00037036-.00004692.00037038-.00002963.00039507-.00000988c.00417282 0 .00755554.00338518.00755554.00756049 0 .00417778-.00338272.00756296-.00755554.00756296-.00417284 0-.00755556-.00338518-.00755556-.00756296z" fill="none" stroke="#000" stroke-miterlimit="10.433" stroke-width=".001235"/><path d="m.32540737.21869138.00022223-.00054322.00037036-.00046912.00049383-.00039507.00066667-.00029629.00079012-.00019754.00091358-.00012346.00103704-.00004938.00116049.00002469.00128395.00012346.00138272.00017285.00150618.0002716.00158024.00032098.0017037.00041976.00177778.00044443.00187655.00054323.0019753.00059258.00414816.00135803.00444444.00158025.00469136.00180246.00491358.00197531.00506172.00214815.00520988.00229629.00533333.00244445.00538271.00256791.00540741.00266665.00540741.00276545.00535803.00281481.00528394.00288889.00518519.00291357.00501235.00293827.0048395.00293827.00461729.00291359.00434568.00288889.00407407.0028395.00372839.00276543.0017284.00135803.00162963.00133333.00153086.00130865.0014321.00128395.00130864.00125926.00120988.00120987.00108641.00118519.00096297.00116049.00081482.00111111.00071605.00106173c.01091358.01819753.00167901.01770371.00209876.03170371.00034568.0108642.00713581.01777778.01493827.01804938.0088889.00034567.01666667-.00456791.01864198-.01081482.00318519-.00992592-.00296296-.02837037-.01483951-.02256789-.00659259.00320987.00328395-.01654321.01358025-.01017285.00834568.00516049.00545679-.0048395.01595062-.00545679.01417284-.00081481.01032098.01711111.00955555.02377777-.00153086.01358026.00493827.02920989.0188395.02345679.01790124-.00740741.00093828-.02350617.00864199-.04229629.00772839-.01881481.07792592-.06096296.12871604-.06758024.01417284-.00185185.00523457.00925926-.00155555.01481482-.00345679.0028395.00293826.01619752-.01449383.03362962-.00340741.00340742.00846913.01399999-.02651853.04108642-.00434567.00335803.00735803.02372839-.03091357.03454321-.00851851.00239506.0051358.01162963-.00646914.02469136-.0074074.00832099.00879013.02019753-.00925926.02622222-.00555555.00185185.00649384.01760493-.01325925.02037037-.00469136.00066666-.00469136.02602469-.02809877.00772839-.00711111-.00555556.00429629.01659259-.00153086.01511111-.00585186-.00148148-.0077284-.004-.0077284-.004s-.00209876.01525927.00708642.0228395c.00525927.004321.004.02540741-.01234568.01449383-.00182715-.00123456.00155557.01728395-.01387654.00772839-.00234567-.00145677-.00799999.01469137-.01822222-.00061727-.00123457-.00185186-.01214815.01069135-.01417284-.00555556-.000321-.00246914-.00587654.00832099-.01328395.0002963-.0077037-.00834568.00333334-.01740741.00508642-.01972839.00508641-.00681482-.00145679-.01269137.00079012-.01792593.00523457-.01234568-.00402468.00802469-.00896297.00217284-.00402469-.00479012.00740741-.01925926.00155557-.01637037-.02192593.01081481-.0191605-.00461729-.02254322-.00493827-.01896295-.0017037-.00772839-.01728395-.01325925-.01758026-.02375308-.00130864-.00896297-.02439505-.01358025-.02624691-.01758024-.00703703-.00187655-.02160493-.00619753-.02338272-.03861729-.01572838-.02081482-.02748147-.02925926-.03232097-.03637037-.02091358-.01743209-.03212347-.02249383-.03782717-.01108642-.01246913-.02390124-.02249383-.01785185-.03992592-.00353087-.00787654-.01155555-.00501235-.00837037-.01802469z" fill="#fda65e"/><g fill="none"><path d="m.32540737.21869138.00022223-.00054322.00037036-.00046912.00049383-.00039507.00066667-.00029629.00079012-.00019754.00091358-.00012346.00103704-.00004938.00116049.00002469.00128395.00012346.00138272.00017285.00150618.0002716.00158024.00032098.0017037.00041976.00177778.00044443.00187655.00054323.0019753.00059258.00414816.00135803.00444444.00158025.00469136.00180246.00491358.00197531.00506172.00214815.00520988.00229629.00533333.00244445.00538271.00256791.00540741.00266665.00540741.00276545.00535803.00281481.00528394.00288889.00518519.00291357.00501235.00293827.0048395.00293827.00461729.00291359.00434568.00288889.00407407.0028395.00372839.00276543.0017284.00135803.00162963.00133333.00153086.00130865.0014321.00128395.00130864.00125926.00120988.00120987.00108641.00118519.00096297.00116049.00081482.00111111.00071605.00106173c.01091358.01819753.00167901.01770371.00209876.03170371.00034568.0108642.00713581.01777778.01493827.01804938.0088889.00034567.01666667-.00456791.01864198-.01081482.00318519-.00992592-.00296296-.02837037-.01483951-.02256789-.00659259.00320987.00328395-.01654321.01358025-.01017285.00834568.00516049.00545679-.0048395.01595062-.00545679.01417284-.00081481.01032098.01711111.00955555.02377777-.00153086.01358026.00493827.02920989.0188395.02345679.01790124-.00740741.00093828-.02350617.00864199-.04229629.00772839-.01881481.07792592-.06096296.12871604-.06758024.01417284-.00185185.00523457.00925926-.00155555.01481482-.00345679.0028395.00293826.01619752-.01449383.03362962-.00340741.00340742.00846913.01399999-.02651853.04108642-.00434567.00335803.00735803.02372839-.03091357.03454321-.00851851.00239506.0051358.01162963-.00646914.02469136-.0074074.00832099.00879013.02019753-.00925926.02622222-.00555555.00185185.00649384.01760493-.01325925.02037037-.00469136.00066666-.00469136.02602469-.02809877.00772839-.00711111-.00555556.00429629.01659259-.00153086.01511111-.00585186-.00148148-.0077284-.004-.0077284-.004s-.00209876.01525927.00708642.0228395c.00525927.004321.004.02540741-.01234568.01449383-.00182715-.00123456.00155557.01728395-.01387654.00772839-.00234567-.00145677-.00799999.01469137-.01822222-.00061727-.00123457-.00185186-.01214815.01069135-.01417284-.00555556-.000321-.00246914-.00587654.00832099-.01328395.0002963-.0077037-.00834568.00333334-.01740741.00508642-.01972839.00508641-.00681482-.00145679-.01269137.00079012-.01792593.00523457-.01234568-.00402468.00802469-.00896297.00217284-.00402469-.00479012.00740741-.01925926.00155557-.01637037-.02192593.01081481-.0191605-.00461729-.02254322-.00493827-.01896295-.0017037-.00772839-.01728395-.01325925-.01758026-.02375308-.00130864-.00896297-.02439505-.01358025-.02624691-.01758024-.00703703-.00187655-.02160493-.00619753-.02338272-.03861729-.01572838-.02081482-.02748147-.02925926-.03232097-.03637037-.02091358-.01743209-.03212347-.02249383-.03782717-.01108642-.01246913-.02390124-.02249383-.01785185-.03992592-.00353087-.00787654-.01155555-.00501235-.00837037-.01802469z" stroke="#000" stroke-miterlimit="10.433" stroke-width=".009877"/><path d="m.46049379.32696298c-.00276543.05123457.07995062.05246914.0728395-.00493827" stroke="#000" stroke-miterlimit="10.433" stroke-width=".009877"/><path d="m.47345674.32728396c.01449384.03148149.04753087.0120247.04567902.00061729" stroke="#000" stroke-miterlimit="10.433" stroke-width=".009877"/><path d="m.45032095.2837531c-.07037037.1425926.17160494.13241975.08641975 0" stroke="#000" stroke-miterlimit="10.433" stroke-width=".009877"/><path d="m.488593.405975h.015407" stroke="#000" stroke-miterlimit="10.433" stroke-width=".009877"/><path d="m.48518515.43807409.0005432.0005432.00049383.00056792.00046914.00059258.00044444.00061729.00039507.00064197.00039506.00066667.00034567.00069136.000321.00071605.00059258.00148148.00049383.00153087.00039507.00162962.00034567.00167901.00024691.00170371.00019754.00175308.00017284.00175309.00009876.00180248.00007407.00177777.0000494.00180247.00004938.00350617.00002469.00172839.00004938.00167902.00002469.00162963.00007408.00155555.00009876.00150617.00014815.00140742.00019752.00130863.00024692.00123457.00014815.0005679.00017284.00054322.00017283.00051852.00019754.00049382.00024691.00044444.00024691.00041975.00024692.00037038.00029629.00037036.000321.0002963.00034567.0002716.00037038.00024691.00039505.00019754.00041976.00014815.00046914.00012345.00046913.0000494.00054321.00002469c.01140741 0 .00091359-.04382717.01449382-.04412346" stroke="#000" stroke-miterlimit="10.433" stroke-width=".009877"/><path d="m.47098761.4717284c.00975309-.00488887.00955556-.02130863.01049383-.02439505" stroke="#000" stroke-miterlimit="10.433" stroke-width=".009877"/><path d="m.52358021.47130866c-.00975309-.00488889-.00955556-.02130865-.01049383-.02439506" stroke="#000" stroke-miterlimit="10.433" stroke-width=".009877"/><path d="m.43239502.41214816c.01111111-.00123457.02716049-.03641974.02007408-.04197531" stroke="#000" stroke-miterlimit="10.433" stroke-width=".009877"/><path d="m.41945676.39609878c.01145678-.00153086.02930863-.03116049.02469135-.03641975" stroke="#000" stroke-miterlimit="10.433" stroke-width=".009877"/><path d="m.40587651.36740742c.01079013.00308642.03269135-.01204938.03333333-.02037036" stroke="#000" stroke-miterlimit="10.433" stroke-width=".009877"/><path d="m.33395057.23469138.00086421-.00019753.0008642-.00014815.00086419-.00007407.00086419-.00004938h.00083952l.0008395.00004938.0008642.00007407.0008395.00014815.00083952.00017283.00081481.00019753.00165432.00054321.00162963.00069136.00160494.00081481.00160493.00091359.00155557.00103703.00155555.00113581.00150617.00123457.00150617.00128394.00145679.00135804.00145679.00140739.00140742.0014568.0013827.00150617.00133335.00150617.00261727.00301236.00125926.00150617.00120988.00148148.00118518.0014321.00113581.0014074.00111111.00133334.00106172.00128395.00101235.00118518.00098765.00108642.00093827.00101234.0008889.0008889.0008395.00076543.00081482.00064198c.0154321.01111111.0271111.00896296.03148148.00679012.00061729-.00032099-.00864198.03548148.02901235.07066666" stroke="#000" stroke-miterlimit="10.433" stroke-width=".009877"/><path d="m.66116046.23266668-.00086421-.00017283-.00086419-.00014815-.0008642-.00012345-.0008395-.0000494-.00086421-.00002469-.0008395.00002469-.0008395.00007409-.00083951.00009876-.00165433.00032098-.00162962.00046914-.00160495.0005926-.00160493.00071604-.00155556.00081482-.00155555.00091357-.00153087.00101236-.00148148.0011111-.00148148.0011605-.0014321.00123457-.0014074.00125926-.00138272.00133333-.00135803.00133334-.00133333.0013827-.0025432.00276543-.00123457.00138273-.00118519.00133332-.0011605.00133335-.0011111.00128394-.00108643.00125926-.00106172.00118519-.00101235.0011111-.00096296.00103705-.00091359.00093826-.00088888.00083952-.0008642.00074074-.00079012.00064198c-.01543209.01111109-.02767901.01190123-.03204939.0097037-.00061727-.0002963.00612346.03750617-.03153087.07269135" stroke="#000" stroke-miterlimit="10.433" stroke-width=".009877"/><path d="m.34814811.27140742.00138272.00002469.00133333.00009878.00128395.00022222.00128395.0002716.00123456.00034568.00120988.00044444.00118519.00049383.0011605.00054321.00113579.00061729.00108643.00066666.00108641.00071605.00106174.00074074.00106173.00079012.00101234.00081482.00101235.0008395.00098765.00086421.00195062.00175308.00187655.00177778.00185184.00175308.00185186.00167902.00091357.00081481.0008889.00076543.00091358.00071605.00091357.00069136.00091358.00064197.00091359.0005926.00091357.00054321.00091358.00046913c.00538272.00251852.0194568.00617284.02592593.00338272" stroke="#000" stroke-miterlimit="10.433" stroke-width=".009877"/><path d="m.37007404.31214816c.01079011.00464198.04256789.00958025.04474074.00279014" stroke="#000" stroke-miterlimit="10.433" stroke-width=".009877"/><path d="m.3984691.3454815c.0074321.00056789.02158024-.00617284.02592593-.01572839" stroke="#000" stroke-miterlimit="10.433" stroke-width=".009877"/><path d="m.53518515.37728397c-.00123458.00555555.01419753.03209876.0308642.03486419" stroke="#000" stroke-miterlimit="10.433" stroke-width=".009877"/><path d="m.54567897.36585187c.00802469.00032099.02654322.02012345.02839506.02777777" stroke="#000" stroke-miterlimit="10.433" stroke-width=".009877"/><path d="m.55185181.35474076c.00987654-.00308642.02933334.00925925.03148148.01666666" stroke="#000" stroke-miterlimit="10.433" stroke-width=".009877"/><path d="m.55832094.33930866c.00834569-.00338272.02839507.00093827.03150618.0077284" stroke="#000" stroke-miterlimit="10.433" stroke-width=".009877"/><path d="m.58054317.31338273c.00617284.00185186.03365431.00155557.04538271-.00864197" stroke="#000" stroke-miterlimit="10.433" stroke-width=".009877"/><path d="m.58641971.29116051.00071605.0002716.00071605.00024692.00076543.00019753.00076544.00017284.00079012.00014814.00079012.00009878.00083951.00007407.00081481.00004938.00083952.00002469.0008395-.00002469.0008395-.00002469.00083951-.00007407.00086419-.00007407.00083952-.00012347.0008395-.00012345.00081481-.00017284.00083951-.00017284.00081481-.00019754.00079012-.00022222.00079012-.00024691.00074075-.00027161.00074074-.0002716.00074074-.00029629.00069136-.00032099.00066667-.000321.00064197-.00034567.0005926-.00034567.00056789-.00037038.00054321-.00039505.00049383-.00039507.00046913-.00039507.00041976-.00041974c.00555555-.00585186.02869136-.02437038.03920988-.02098766" stroke="#000" stroke-miterlimit="10.433" stroke-width=".009877"/></g><path d="m.51740737.38456791-.00108642.00007408-.00101235.00014814-.00096296.00019754-.00091359.00024691-.0008395.0002963-.00079012.00037037-.00071605.00039506-.00066667.00046913-.00061728.00054322-.00056791.0005679-.0005432.00064197-.00046914.00071605-.00041974.00074074-.00039507.00081482-.00037037.00086419-.0002963.00093828-.0002963.00096296-.00024691.00106173-.00019753.00108643-.00019752.00116048-.00014816.00120988-.00014815.00128395-.00009876.00133334-.00009876.00140739-.00007408.0014568-.00004938.00150617-.00004938.00158025-.00002469.00162962-.00002469.00170371v.00175308.00182717l-.00002469.00187655c0 .01204937.00081481.01308641.00140739.0177037.00054321.0039753.00879013.01254321.0140247.01160493.00525925-.00091358.00987654-.00679011.00987654-.01358024 0-.0120247 0-.02160493 0-.03301235 0-.00496296-.004-.01404937-.01296296-.01358025z" fill="#fda65e"/><path d="m.51740737.38456791-.00108642.00007408-.00101235.00014814-.00096296.00019754-.00091359.00024691-.0008395.0002963-.00079012.00037037-.00071605.00039506-.00066667.00046913-.00061728.00054322-.00056791.0005679-.0005432.00064197-.00046914.00071605-.00041974.00074074-.00039507.00081482-.00037037.00086419-.0002963.00093828-.0002963.00096296-.00024691.00106173-.00019753.00108643-.00019752.00116048-.00014816.00120988-.00014815.00128395-.00009876.00133334-.00009876.00140739-.00007408.0014568-.00004938.00150617-.00004938.00158025-.00002469.00162962-.00002469.00170371v.00175308.00182717l-.00002469.00187655c0 .01204937.00081481.01308641.00140739.0177037.00054321.0039753.00879013.01254321.0140247.01160493.00525925-.00091358.00987654-.00679011.00987654-.01358024 0-.0120247 0-.02160493 0-.03301235 0-.00496296-.004-.01404937-.01296296-.01358025z" fill="none" stroke="#000" stroke-miterlimit="10.433" stroke-width=".009877"/><path d="m.47313576.38498767-.00108641.00009877-.00101235.00012345-.00096296.00019754-.00091359.00024691-.0008395.00032098-.00079012.00034569-.00071605.00041974-.00066667.00046914-.00061729.00051852-.0005679.0005926-.0005432.00064197-.00046914.00069136-.00041976.00076543-.00039505.00081481-.00037038.0008642-.00029629.00091359-.0002963.00098765-.00024691.00103704-.00019753.0011111-.00019754.0011605-.00014814.00120988-.00014815.00128394-.00009876.00133334-.00009877.00138271-.00007407.00145679-.00004938.00153086-.00004938.00155557-.00002471.00165431-.00002469.00167902v.00175308.00182717l-.00002469.00187654c0 .01204938.0022716.01237036.00246914.01637036.00032098.00585186.00261729.01671605.01298766.01296297.00498765-.00182715.00908642-.00404938.00987654-.01081482.00123457-.01079012 0-.02437037 0-.03580247 0-.00493827-.0040247-.01404938-.01298766-.01358024z" fill="#fda65e"/><path d="m.47313576.38498767-.00108641.00009877-.00101235.00012345-.00096296.00019754-.00091359.00024691-.0008395.00032098-.00079012.00034569-.00071605.00041974-.00066667.00046914-.00061729.00051852-.0005679.0005926-.0005432.00064197-.00046914.00069136-.00041976.00076543-.00039505.00081481-.00037038.0008642-.00029629.00091359-.0002963.00098765-.00024691.00103704-.00019753.0011111-.00019754.0011605-.00014814.00120988-.00014815.00128394-.00009876.00133334-.00009877.00138271-.00007407.00145679-.00004938.00153086-.00004938.00155557-.00002471.00165431-.00002469.00167902v.00175308.00182717l-.00002469.00187654c0 .01204938.0022716.01237036.00246914.01637036.00032098.00585186.00261729.01671605.01298766.01296297.00498765-.00182715.00908642-.00404938.00987654-.01081482.00123457-.01079012 0-.02437037 0-.03580247 0-.00493827-.0040247-.01404938-.01298766-.01358024z" fill="none" stroke="#000" stroke-miterlimit="10.433" stroke-width=".009877"/><path d="m189.75 288.45-2-4.25h6" fill="none" stroke="#000" stroke-miterlimit="10.433" stroke-width="2" transform="matrix(.00246914 0 0 -.00246914 0 1)"/><path d="m.10252589.39380249.00761975-.02096297c.00415803-.0114074.00369383-.01891358.00047409-.02520987-.00340495-.00634568-.00995309-.01098766-.01856792-.01412346-.0083432-.00303704-.01629875-.00355556-.02325432-.00046913-.00646172.00293827-.01052098.00832099-.01388888.01755555l-.00831358.0228395.00283703.00103705c.00210124-.00577779.00285432-.0060247.00833334-.00404939l.0381358.01390123c.00547901.00200001.00589382.00266667.00379013.00844445z" fill="#053a82"/><path d="m.05888392.36158026-.00014073-.00004938-.00013334-.00004938-.00013087-.00004938-.00012839-.00004938-.00024691-.00009878-.00022963-.00009875-.00021729-.00009878-.00020247-.00009876-.00019013-.00009876-.00017777-.00007408-.00016296-.00009876-.00015062-.00009876-.00014074-.00009878-.00012593-.00009876-.00011358-.00009877-.00010123-.00009876-.00009136-.00009877-.00007901-.00012345-.00006667-.00009876-.00005925-.00012347-.00004445-.00012345-.00003705-.00012346-.00002469-.00012345-.0000148-.00014815-.00000495-.00012347.00000495-.00014814.00001234-.00017284.00002469-.00014814.0000321-.00017284.00003951-.00017285.00004938-.00017284.00005925-.00019752.0000642-.00019753.00007409-.00022223.00194814-.00533334c.00222963-.00612344.00555555-.01014814.01093827-.01185185.00599012-.00185184.01250124-.00096296.02074815.00204939.00749382.00271605.01289382.00632098.01588394.01116049.00324198.00503704.00353086.01111112.00104199.01795063l-.00136051.00372839c-.00090616.00251851-.00166913.00266665-.00541975.00130864z" fill="#fff"/><path d="m.14377774.29745681-.01062715-.00861728-.00177532.00335801c.00692593.0060247.00717532.00713581.00501482.01120989l-.00531359.00999999c-.00077282.0014321-.0014469.00180248-.00430122.00029629l-.01913581-.01017283.00393581-.00740741c.00170617-.00318519.00247655-.00350617.00934568.00014815l.00173579-.00323456-.01782468-.00948149-.00173581.00323456c.00640494.00340742.0068568.00444445.0051605.00760495l-.00391606.00738271-.01695554-.00901234c-.00287409-.00153087-.00322224-.00199999-.00195803-.00437037l.00404938-.00762963c.00214074-.00402469.0028642-.0045432.01174816-.00219753l.00178518-.00335802-.01271358-.00392593-.01660741.03123456.00266172.00140742c.00268149-.00503704.00353087-.00528396.00869876-.00254321l.03576544.01903704c.0051679.00274073.00545926.00355555.0027679.00859258l.00266174.00140741z" fill="#053a82"/><path d="m.14708639.27417285.00022222.00017285.00021482.00014815.0002074.00014814.00020247.00014815.00019506.00012345.00018765.00014816.00018273.00014815.0001753.00012345.0001679.00012346.00016297.00012345.00015555.00012347.00014815.00014814.00028148.00022222.00025432.00024691.00022963.00022223.00020247.00022222.00018024.00022223.00015557.00022222.00013085.00022222.00010617.00022221.00008148.00022223.00005927.00022222.00003457.00022222.00001235.00022223-.00001235.00024691-.00003457.00024691-.00005679.00024692-.00008148.0002716-.00010124.0002716-.00012346.0002963-.00014814.00029631-.00016791.00029629-.00009382.00017284-.0000963.00017283-.0001037.00017285-.00010864.00017284-.00011358.00017283-.00011851.00017284-.00012347.00019754-.00013086.00019753-.00013581.00019752-.00013827.00019753-.00014568.00022223-.00015061.00022222.00246914.0017284.01251852-.01787654-.00246914-.0017284c-.00373086.00533333-.00445433.00530864-.00928643.00192592l-.01378271-.00965432.00229383-.00328395c.00472593-.00674073.00624197-.01120987.00599999-.015679-.00026912-.00464198-.00294073-.00861729-.00749382-.01177778-.00458271-.00323457-.00933579-.00402469-.01339753-.00274074-.00388642.00120987-.00730124.00407406-.01154567.01014814l-.01158273.01651852.00246914.0017284c.00325926-.00464198.00408889-.00469136.00887408-.00133334z" fill="#053a82"/><path d="m.11674317.23683952.00021729-.00029629.00021729-.00029629.00021727-.0002963.00021977-.00027162.00021727-.0002716.00021976-.0002716.00021975-.00024692.00021975-.00024691.00022222-.00024691.00021975-.00022223.0002247-.00022222.00022223-.00022221.00022468-.00019753.0002247-.00019754.00022468-.00019753.00022718-.00017284.00022961-.00017283.00022964-.00017285.00022963-.00017284.0002321-.00014814.00023209-.00012347.00023457-.00014813.00023704-.00012347.00023703-.00012345.00023952-.00009877.0002395-.00009876.00024198-.00009878.00024444-.00009876.00024691-.00007407.00024692-.00007408.00024938-.00007407.00025185-.00004938c.00295062-.00054321.00644197.00041976.00991358.0028395.00426419.00298767.00591358.00572841.00645433.00854321.00057777.00335804-.00085927.00649383-.00287409.00938272l-.00236295.00338272-.01729384-.01212345c-.00318271-.00222223-.0036074-.00283952-.00270123-.00414815z" fill="#fff"/><path d="m.18551354.21054323.0098.00449383c.00389631.0017037.00472594.00266667.0015605.00617284l.00223951.00202469.01195802-.01325927-.00224691-.00202469c-.0018889.00209878-.00310617.00227161-.00777284.00022223l-.05064691-.02153086-.00331852.00367901.02858765.0477037c.00201729.00338272.00188148.00464198.00000988.00671605l.0022395.00202469.00894075-.00992593-.00224692-.002c-.00302963.00335803-.00383951.00296297-.00672345-.00158024l-.0053531-.00832099z" fill="#053a82"/><path d="m73.672 320.38-4.586-5.1-5.996 9.67.074.09z" fill="#fff" transform="matrix(.00246914 0 0 -.00246914 0 1)"/><path d="m.22387156.16140743.00025433-.000321.00024691-.00032098.00023704-.00032098.00022964-.000321.00043703-.00066666.00040247-.00066667.00037036-.00066667.00033828-.00064196.00030864-.00066668.00027408-.00066667.00024443-.00066665.00021482-.00066667.00018273-.00064199.00015061-.00064196.00012099-.00064198.00009135-.00061728.00006174-.0005926.00001728-.00032098.00001234-.0002963c.00011606-.00395062-.00142716-.00753087-.00371358-.01024692-.00354814-.00422222-.00755062-.00572839-.0118716-.00548148-.0049284.00034568-.00901976.0025926-.01471853.00738272l-.0161753.01355556.00193827.00232098c.00449383-.00377777.0052963-.00360493.00906667.00088889l.02601234.03098765c.00378025.00449384.00379013.00533334-.00069382.00908642l.00193827.002321.0162321-.01362964-.00192839-.00232098c-.00436051.00367901-.00501482.00353086-.00885433-.00103704l-.01140988-.01358024.00439754-.00370371.02867654.01153087.00938271-.00787654-.00192593-.002321c-.00251851.00212346-.00392592.00249382-.00935802.00049383z" fill="#053a82"/><path d="m.19872589.15320989-.00012345-.00014814-.00012347-.00012346-.00011851-.00014814-.00011358-.00014816-.00011112-.00012345-.00010863-.00014815-.00010371-.00012345-.00010123-.00012346-.00009876-.00012345-.00009384-.00012347-.00009135-.00009876-.00008643-.00012346-.00008394-.00009876-.00008148-.00012346-.00007902-.00009876-.00007407-.00009878-.00006913-.00009876-.00006914-.00009876-.0000642-.00009877-.00006172-.00009876-.0001136-.00017285-.00009875-.00017284-.00008889-.00014814-.00007407-.00014815-.00006173-.00014814-.00005185-.00014816-.00003704-.00012345-.00002716-.00012346-.00001482-.00012345-.00000246-.00012346.00000987-.00012345.00001975-.00009878.0000321-.00012345.00004445-.00009877.00005431-.00009876.00006668-.00012346.00007654-.00009876.00008641-.00009876.00009876-.00012347.00010865-.00009876.00011853-.00009877.00013086-.00012345.00299999-.00251852c.00334569-.00279013.00616297-.00380247.00883458-.00367901.0031432.00012345.00602716.00182715.00835308.00456789.00295061.00353086.00410864.00654322.00366419.01000001-.00043456.00323457-.00252839.00609876-.00596049.00898765l-.00355061.00296296z" fill="#fff"/><path d="m.2578765.10424693.00730865-.00456789c.00404938-.00251853.00481481-.00261729.01150618.00471605l.00298765-.00187655-.00903704-.0108642-.03703951.0231605.00579754.01288888.00300987-.00187653c-.00366666-.00908643-.00332839-.00982717.00076049-.01239508l.00732346-.00456789.02446914.0391358c.00311111.00496296.00308642.0057037-.00288889.0094568l.00155555.00251851.02004938-.01254321-.00155555-.00249383c-.006.0037284-.00666667.00340741-.00975308-.00155555z" fill="#053a82"/><path d="m.33622219.06195064.00288888.04958025-.00022222.00007407-.0328642-.03745679-.01390123.00562963.00111112.00279012c.00518518-.00209876.00580246-.00170371.00790123.00348148l.01528395.03782717c.00219752.0054321.00204938.00619753-.00311111.0082716l.00113579.00279013.01456792-.00587655-.00113581-.00279013c-.00476543.00192593-.00540741.00148148-.00760494-.00395062l-.01508642-.03733333.00014815-.00007407.03508642.04.00288888-.0011605-.00293826-.05281481.00019752-.00007407.01503704.03718519c.00219753.0054321.00212346.00614815-.00293827.00822222l.0011358.00276543.01908642-.0077037-.00111111-.00279012c-.00523456.00209876-.00590123.001679-.00809876-.0037531l-.0151358-.03745678c-.00222222-.00550618-.00212346-.00624692.00313579-.00837037l-.0011111-.00279012z" fill="#053a82"/><path d="m.42204934.09906175-.00069135-.01367901-.00367901.00091357c.00014814.00920989-.00051853.01012347-.00498767.01123458l-.01098764.00274074c-.00158024.00039506-.00232098.00014815-.00311112-.00298766l-.00523456-.02101234.00812345-.00204938c.00353086-.0008642.0042716-.00049383.00614815.00706172l.00358024-.00088888-.00488887-.01960495-.00355557.0008889c.00175309.00706172.00128395.00807408-.00219753.00893827l-.00812346.00202469-.00464196-.01864197c-.00079014-.0031605-.00066667-.0037284.00192591-.00437038l.00839506-.00209877c.00441976-.0011111.00528396-.00091357.00950618.00725927l.00367902-.00091359-.00558026-.01207407-.03434567.00854321.00074074.00291359c.00555556-.00135804.0062963-.0008889.0077037.00476542l.00980247.03933333c.0014321.00565432.00101235.00641976-.0045432.00780248l.00074074.00293827z" fill="#053a82"/><path d="m.44703701.03570373-.01498766.00133333.0002716.00298765c.00590124-.00051851.00644444-.00007407.00696296.00582717l.00355556.04046914c.00049383.00582715-.0000247.00646913-.00577778.00698765l.00024691.00298765.01683951-.00145679-.00027161-.00301235c-.00575308.00049383-.00639506-.00002469-.00688889-.00587654l-.00367901-.04190124h.00017284l.03661728.04928396.00582717-.00051852-.00444445-.05061728c-.00049382-.00582717.00012347-.00649383.00555555-.00696296l-.0002716-.00298766-.01681482.00145678.00027161.00301236c.00590123-.00051852.00661728 0 .0071358.00585184l.00340741.03903705h-.00014815z" fill="#053a82"/><path d="m.53629626.03832101.00859259.00061729c.00474074.00032098.0054321.00069136.00651851.01056789l.00353086.00024691-.00093826-.01409876-.04355556-.00306172-.00291357.01382716.00355555.0002716c.00237038-.00953086.00308641-.00992592.00790124-.00958025l.00861728.00061729-.00320988.04604938c-.00041975.00582716-.0008642.00641975-.00790123.00592592l-.00022222.00296296.02360493.00165433.00019753-.00296296c-.00706172-.00049383-.00740741-.00113581-.00698765-.00696296z" fill="#053a82"/><path d="m.61992589.1117778.00079012.00024692.00076543.00019752.00079012.00019753.00076543.00019753.00074074.00014816.00076543.00014814.00074074.00012346.00074074.00012345.00074074.00007409.00071606.00007406.00071605.00007407.00071605.00002469.00071605.00002469h.00069136.00071605l.00066666-.00004938.00069136-.00004938.00066667-.00007407.00069136-.00007408.00064197-.00012345.00066667-.00012346.00064198-.00012345.00064196-.00017285.00064199-.00017283.00064196-.00019753.00061729-.00022222.00061728-.00024692.0005926-.00024691.00061728-.0002716.0005926-.00029631.0005679-.00032098.00059258-.00034568c.00565433-.00340741.01044446-.00980247.01358025-.02004938.0031605-.01034568.00269136-.01898765-.00091357-.02550618-.0034321-.00604937-.00935803-.00995061-.01646914-.01212345-.00711111-.00219754-.01419754-.00224692-.02044445.00083951-.00661728.00338271-.01185185.0102716-.01501235.02064197-.00313579.01022223-.00274073.01822222.0000494.02422222.00303703.00646914.00896296.01088888.01723455.0134321z" fill="#053a82"/><path d="m.63693824.05595065.00046913.00014814.00044444.00014815.00044444.00017283.00044445.00017284.00041976.00017285.00041974.00019753.00041976.00019752.00041976.00019753.00039505.00022223.00039507.00024691.00039506.00022222.00037037.00024692.00037037.00024691.00037037.0002716.00034567.00027161.00034569.00029629.00034567.00029631.00032099.00029629.00032099.0002963.00032099.00032098.00029629.00034569.00029629.00034567.00029631.00034569.0002716.00034567.00027161.00037036.00024691.00037038.00024691.00039507.00024692.00039505.00022222.00041976.00022223.00041976.00019752.00041974.00019753.00044445c.0020247.00493827.00207408.01195061-.00111111.02239506-.00269135.00876543-.00661728.01543209-.01148148.01896297-.00397531.00259258-.00923457.00340739-.01424691.00185184-.00503704-.00153086-.00893828-.00511111-.01079012-.00948147-.00204938-.00567901-.00158026-.01340742.0011111-.02217284.00318519-.01044444.0071358-.01622223.01158025-.01918519.00432099-.00276543.00918519-.0031605.01407407-.00165433z" fill="#fff"/><path d="m.70535799.10130866-.00333334-.00155555c-.00303704.00649382-.00419754.00701234-.00745679.00550617l-.00713581-.00333333.00829631-.01782716c.00148148-.00318518.00195062-.00353087.00437036-.00239506l.00817283.00380246c.00402471.00187655.00446915.00279013.00266667.01167902l.00340741.00158024.00320988-.01306173-.03214814-.01498765-.00128395.00274075c.00516049.00239505.00545679.00323457.00298765.0085432l-.01713581.03669136c-.00246914.00530864-.00320988.00567902-.00844444.00323457l-.00128395.00271605.0202716.00945679.00125926-.00274074c-.0062716-.00291359-.00641975-.00358026-.00390123-.00896296l.00797531-.01708643.00723457.00338272c.00323456.00150617.00365432.00237037.00039506.00935802l.00333333.00155555z" fill="#053a82"/><path d="m.76856786.17335804-.00308643-.00224691c-.00723456.00639506-.00841975.0065926-.01229629.00380246l-.00720988-.00525925c-.00153086-.0011111-.00177777-.00182715.00017285-.00451851l.02488889-.03424692c.00355555-.00488889.00424691-.00513581.0091358-.00158024l.00177777-.00244445-.01723457-.01254321-.00177777.00244444c.00444444.00325926.00456789.00414816.00113579.00888889l-.02377777.03269136c-.00345679.00476544-.00432098.00496296-.00879011.0017037l-.00177779.00241976.02851852.02074074z" fill="#053a82"/><path d="m.80449378.20113583-.00498765.00955554c-.00192593.00380248-.00293827.00456791-.0062716.00123457l-.00212346.00212346.01264197.01264198.00212346-.00212345c-.002-.00200001-.00212346-.00323458.00017283-.00780248l.02414815-.04943209-.00350617-.00350619-.0491358.0260247c-.00345679.00185185-.00474074.00165433-.00671605-.00032098l-.00212346.00212345.0094321.00945678.00214815-.00214813c-.00323457-.00318519-.00279012-.00397531.00190124-.00664198l.00859259-.00488889z" fill="#053a82"/><path d="m326.54 324.96-4.85 4.85 9.97 5.48.08-.08z" fill="#fff" transform="matrix(.00246914 0 0 -.00246914 0 1)"/><path d="m.85716046.20145681.00014814.00019754.00017284.00022222.00014814.00019752.00014815.00019753.00012347.00019754.00014814.00019753.00012346.00017283.00012345.00019753.00012346.00017285.00009876.00017284.00012345.00017283.00009878.00014815.00009876.00017285.00007408.00014814.00017283.0002963.00014815.0002963.00009876.0002716.00009878.00027161.00007407.00024691.00004938.00024691.00002469.00024692v.00024691l-.00004938.00022222-.00004938.00022223-.00007407.00024691-.00009878.00022222-.00012345.00022223-.00014815.00022221-.00017284.00024691-.00019752.00022222-.00022223.00024692-.00024691.00024691-.0002716.00024691-.00014816.00014816-.00014815.00012345-.00017283.00012346-.00014815.00014816-.00017285.00014814-.00019752.00014815-.00017284.00014814-.00019754.00014815-.00019753.00014814-.00022222.00014816-.00019752.00017284-.00022223.00017283-.03222222.02427161c-.00471605.00355555-.00555555.00353086-.00906172-.0011358l-.00239507.00182717.01358025.01802469c.00474074.00629629.00893827.00906171.0134074.00967901.00407408.00059258.00814815-.00056792.0122963-.00367902.00382715-.00288889.00535803-.00664197.00540741-.01037037.00009876-.00409877-.00153086-.00837037-.00446914-.01254321l.00012345-.00009876c.00377778.00375308.00728396.00555555.01069137.00607406.00377777.0006173.00723456-.00061727.01002468-.00274073.00348148-.00261728.00506174-.00622222.00506174-.00985186-.00004939-.00476543-.00219753-.00851851-.00676544-.01461728l-.01185185-.01570371z" fill="#053a82"/><path d="m.86345674.21555558.00014816-.00009876.00014814-.00009878.00012346-.00009876.00014814-.00009877.00012347-.00007407.00012345-.00007407.00012346-.00007409.00012345-.00007407.00012346-.00004938.00012345-.00004938.00009878-.00004938.00009876-.00004939.00012346-.00002469.00009876-.00002469h.00009876.00012346.00009876.00009878l.00009876.00002469.00009876.00002469.00009877.00004939.00009876.00004938.00009877.00004938.00009876.00007407.00012347.00007409.00009876.00009876.00009876.00009876.00012346.00009877.00004938.00007407.00004938.00004938.00004938.00007409.00007408.00007407.00004938.00004938.00004938.00007406.00007407.00007409.0000494.00009876.00239505.0031605c.00227162.00303703.00276544.00565432.00237038.00782716-.00061728.00259259-.00249383.00488888-.00476543.00661727-.00345679.0025926-.00661729.00325927-.00935803.00281483-.00301234-.00054321-.00560494-.00251852-.00767901-.00525927l-.00254322-.00338271z" fill="#fff"/><path d="m.84451847.22985187.00328396.00437038c.0025679.00340739.00375308.00659258.0034074.00955554-.00034568.00301235-.002.00590124-.00523457.00832099-.00382715.0028889-.00701234.00402469-.0097037.00392593-.00298765-.00019753-.00535803-.00172839-.00750617-.00456791l-.00288889-.00382715c-.00145679-.00197531-.00118519-.00283951.00145679-.00481482z" fill="#fff"/><path d="m.85923452.30669137.00039507.00071606.00041974.00069136.00041976.00069136.00041976.00064196.00044443.00064198.00041976.00064197.00046914.0005926.00044444.00059259.00046914.0005926.00046914.00054321.00046914.0005432.00049381.00051852.00049384.00051852.00049381.00049383.00051853.00046913.00051852.00044445.00051852.00044445.00054321.00041974.0005432.00039507.00054321.00039507.00056791.00037036.0005679.00034567.00056789.000321.00059261.00032098.00059258.0002963.0005926.0002716.00061728.00024691.00059259.00024692.00064198.00019753.00061729.00022222.00064197.00017285.00064198.00017283c.00646913.00148149.01434567.00019753.02372839-.00498765.00945679-.00525926.0151358-.01180247.01706173-.01898766.00172839-.00676542.00017284-.013679-.00340741-.02017283-.00360495-.00649383-.00866667-.01148149-.01530864-.01360493-.00711112-.00214816-.01567901-.00081483-.02513581.00444444-.00938272.00518519-.01464197.01118518-.01679012.01745678-.00232098.00674075-.0011358.01404938.00308642.02160494z" fill="#053a82"/><path d="m.91027156.27834569.00022223.00041976.00022221.00041976.00019753.00044445.00019753.00041974.00017285.00041976.00017283.00044444.00017284.00044444.00014816.00041975.00012345.00044445.00012346.00044445.00012345.00041974.00009877.00044445.00009876.00044445.00007407.00044444.0000494.00044445.00007407.00044443.00002469.00044445.00002469.00044445.00002469.00044445v.00046913.00044445l-.00002469.00044443-.00004938.00044445-.00004938.00044445-.00007409.00046913-.00007407.00044445-.00009876.00044443-.00009877.00044445-.00012345.00046914-.00012346.00044445-.00014814.00044444-.00014816.00044445c-.002.00498765-.00683951.01004937-.01637036.01533333-.0080247.00444445-.01548149.00649383-.0214568.00567902-.00464197-.0008889-.00896297-.00397531-.01153086-.00856791-.00254321-.0045926-.00286419-.00990123-.0011605-.01432099.00246913-.00550617.00817284-.01071604.01619753-.01518519.00953087-.00528394.01639506-.00669136.02165433-.00575308.00503703.00103703.0088148.00412346.01128394.00859259z" fill="#fff"/><path d="m.91587649.36286422.00022223.00034567.00019753.00034568.00022222.00034568.00022223.00032099.00044444.00064198.00046914.00061728.00049381.0005926.00049385.0005432.00051851.00054321.00051852.00049383.00054321.00044445.00051851.00044444.00054321.00039506.00054321.00037037.00056791.00034568.00054321.00032098.0005432.0002716.00027161.00012347.0002716.00012345c.00365432.00150618.00755556.00135803.01091359.00022222.00520988-.00180246.00804938-.00501234.00935801-.0091358.00143211-.00471605.00081483-.00935803-.00160493-.01639506l-.00688889-.01995062-.0028395.00098766c.00190123.00553087.00148147.00622222-.00407408.00812346l-.03824691.01318519c-.00558024.00190122-.00634569.00162962-.00824691-.00392593l-.0028642.00098766.00691358.02004938.00283951-.00096297c-.00185186-.00538272-.00150617-.00595061.00414814-.00790123l.01679012-.00577779.00187655.0054321-.02103703.02261729.00399999.01160494.0028395-.00098766c-.00106172-.00311111-.00093826-.0045432.00288889-.00888889z" fill="#053a82"/><path d="m.93251848.342321.00019753-.00004938.00017283-.00007407.00017284-.00004938.00017285-.00007408.00017283-.00004938.00014815-.00004938.00017284-.00004938.00014814-.00004938.00014816-.0000494.00014814-.00004938.00012346-.00004938.00014814-.00002469.00012346-.00004938.00014816-.00002469.00012345-.00004939.00012346-.00002469.00009876-.00002469.00012347-.00004938.00012345-.00002469.00009875-.00002469.00019754-.00002469.00019753-.00004938.00017285-.0000247h.00017283l.00017284-.00002469.00014815.00002469h.00012345l.00014816.0000247.00009876.00002469.00012346.00004938.00009876.00004938.00009876.00004938.00009877.00007407.00007407.00007408.00007409.00009876.00009876.00009878.00004938.00009876.00007407.00012345.00007408.00012346.00004938.00014815.00007407.00014814.00004938.00017285.00128396.0037037c.0014074.00412346.00133333.00711111.00024692.00955556-.00123457.00288888-.00385186.00498765-.00725927.00614814-.00434567.00150618-.00758024.00150618-.01061729-.00014814-.00286418-.00155556-.0048148-.00454322-.00627159-.00879013l-.00150618-.00437036z" fill="#fff"/><path d="m.07072836.60607409-.00100494.00017283-.00098272.00017285-.00096295.00014815-.00094075.00009876-.00091852.00007407-.00089876.00007408-.00087654.00002469h-.00042964l-.00042468-.00002469-.00041729-.0000247-.00041481-.00002469-.00040741-.00002469-.00040247-.00004938-.00039506-.00004938-.0003926-.00007407-.00038518-.00007408-.00038025-.00007407-.00037283-.00009876-.00036791-.00012347-.00036295-.00009876-.00035803-.00014815-.00035063-.00012345-.00034567-.00017284-.00033828-.00014816-.00033579-.00017283c-.00332593-.00167901-.00528395-.00501235-.00608396-.0091358-.00090864-.00464198-.00019506-.0080247.00193827-.01059259.00243951-.00325927.00675062-.00493828.01270124-.00609877l.02878024-.00558026c.00587409-.00116048.00642471-.0008395.00746668.00449384l.00295061-.00056791-.00393333-.0202716-.00296297.00056789c.00105186.00540741.00055062.00595063-.0052074.00706174l-.02920493.00567901c-.00817038.00158024-.01319507.00397531-.01586667.00881482-.00219012.00392593-.00248889.00920987-.00120494.01582716.00122469.0062716.0038.01046913.00757036.01298764.00411853.00266667.00939506.00325927.01643457.00187655l.02992098-.00580246c.00573828-.00111112.00644199-.00074074.00743458.00434567l.00295309-.0005679-.003-.01545679-.00295309.00056791c.00098518.0051111.00060988.00580246-.00524691.00693827z" fill="#053a82"/><path d="m.11875058.6314815-.00539259-.01404938-.00281481.00108641c.00212099.00550617.00185926.00617284-.00366667.0082963l-.03792345.01454321c-.00547902.00209876-.00624198.00177778-.00831358-.00362963l-.00281729.00108641.00604692.01575309.00281728-.00108641c-.0020642-.00535803-.00171852-.00612346.00375061-.00822223l.03926667-.01506173.00005679.00014815-.037279.04876543.00210369.00548149.04741482-.01819753c.00547901-.00212347.00626913-.00170371.00822716.00338272l.00281729-.00108643-.00604692-.0157284-.00281728.00106174c.00212099.00553085.00182222.00637037-.00366421.00846913l-.03657529.01404938-.00005679-.00017284z" fill="#053a82"/><path d="m.09611355.70597532-.0002395.00012346-.00023211.00012345-.00022716.00012346-.00021975.00012345-.00021481.00009878-.00020988.00009876-.00020247.00009876-.00019753.00009877-.00019259.00009876-.00018766.00007407-.00036296.00017284-.00034075.00014816-.00032592.00009876-.00031111.00009877-.00029383.00007407-.000279.00007407-.00026914.00002469-.00025679.00002469-.00024445-.00002469-.00023951-.00002469-.00022715-.00004938-.0002247-.00009876-.00021728-.00009877-.00021235-.00012345-.00020988-.00014816-.0002074-.00019753-.00020741-.00019753-.00020494-.00022221-.00020988-.00027162-.00010617-.00012345-.00010617-.00014815-.00010617-.00017283-.00010864-.00014816-.00010865-.00017284-.0001111-.00017283-.00011358-.00017284-.00011359-.00019754-.00011604-.00019753-.00011852-.00019752-.00012099-.00022222-.00012099-.00022223-.00012592-.00022222-.0001284-.00022223-.0001284-.00024691-.00013333-.00024691-.00265431.00140741.01027407.01933333.0026716-.00140741c-.00286666-.00540741-.0025284-.00612346.00264197-.0088642l.03574322-.01901235c.00517036-.00274074.00597037-.00261727.0088074.00271605l.00266172-.0014074-.01023456-.01925925-.00266173.00143208c.00284692.00533334.00250864.00607408-.00266172.00881482z" fill="#053a82"/><path d="m.16200737.72812347.00468889.00723456c.00258519.004.00269877.00476543-.00452345.01158025l.00193827.00296296.01069629-.00923456-.02378518-.03664198-.01279013.0060247.00193087.00298765c.00901728-.00382717.0097605-.00350617.01239259.00054321l.00470618.00725925-.03871359.02513581c-.00490124.00318518-.00564198.00318518-.00949136-.00274074l-.00248888.00160494.01287655.01982963.00248889-.00160988c-.00384939-.00592099-.00354075-.00660741.00136049-.00978024z" fill="#053a82"/><path d="m.15920244.81497778.01197777-.00660492-.00243951-.00291359c-.00819012.00415802-.00932839.00397284-.012279.00045432l-.00728149-.0086716c-.00105185-.00125432-.00114815-.00202716.00132099-.00410864l.01660988-.0139284.00539011.00642469c.00232594.00277778.00231607.00360741-.00364443.00861234l.00237283.00281728.01545926-.01297282-.00236295-.00281729c-.00555557.00465926-.00667408.00468641-.00898767.00192839l-.00537283-.00639506.01470864-.01234568c.00249876-.00209136.00306666-.00223704.00478271-.00018271l.00555556.00662715c.00292346.00348148.00314568.00435803-.00235309.01171852l.00244198.00291358.00840987-.01032099-.0227432-.02711357-.00230617.00195062c.00367653.0043679.00358023.00525432-.00090618.00901727l-.03102716.02603211c-.00447654.00376049-.00535309.00372346-.00901974-.00066667l-.00231359.00193827z" fill="#053a82"/><path d="m.17252095.829321.01657037.01492098c.00903705.00813087.01615556.01051358.02321482.00988642.00714814-.00078271.01390863-.0051111.02004444-.01192099.00595062-.0066074.00940247-.01378271.00913334-.02139259-.00029877-.00708888-.0037531-.01286666-.01107407-.01945432l-.01806421-.01626172-.00202468.00223703c.00457036.00410864.00453333.00489877.00062716.00923951l-.02715063.03015062c-.00390863.00434074-.00469876.00446666-.00925925.00035802z" fill="#053a82"/><path d="m.21875058.80092594.00009877-.00010865.0000963-.00010616.00009629-.00010371.00009384-.00009876.00018023-.00019013.00017531-.00017778.00016791-.00016543.00016296-.00015309.00015802-.00014074.00015309-.00012839.00015061-.00011605.00014322-.00010371.00014073-.00009135.00013827-.00008148.00013581-.00006668.00013333-.00005678.00013086-.00004445.00013088-.0000321.00012838-.00002221.0001284-.00000989.00013086.00000248.0001284.00001482.0001284.00002469.00013086.00003456.00013333.00004938.00013581.00005926.0001358.00006913.00014074.00008148.00014321.00009137.00014815.00010369.00015061.00011358.00015803.00012594.0001605.0001358.00016789.00014567.0042247.00380988c.0048321.0043605.00732099.00895063.00688641.01458272-.00053086.00625186-.00379999.01195061-.00967407.0184716-.00533333.00592099-.01069629.00958766-.01630123.01054075-.00589383.0011111-.01162222-.00088642-.01703211-.00575803l-.00295307-.00266173c-.00197531-.00178271-.00184198-.00254569.00081974-.00550617z" fill="#fff"/><path d="m.30118515.86809384.00061728-.00156543.00064198-.00156297.00032098-.00077531.00032099-.00076543.00032099-.00075802.00032099-.00074074.00032098-.0007284.00029631-.00070864.00032098-.00068889.0002963-.00066419.00029629-.00063951.0002716-.00060988.00027162-.00058026.00012345-.00027653.00012346-.00026913c-.00200001-.00258519-.00488889-.00527408-.00886419-.0076568-.00479014-.00287407-.00903705-.00361729-.01266668-.00295308-.00404938.00079258-.00725925.00322222-.00920987.00645432-.00165433.00275802-.00234569.00561235-.00239507.00838024.00009877.00387902.00204939.00819013.00419753.0141605.002.00467654.00320988.00813826.00348148.01132345.00009878.00261236-.00044443.00472593-.00187653.00707902-.00167902.00279752-.00397531.00447406-.00639507.00513087-.00244444.0006469-.00506173.0002395-.00735802-.00113829-.00520988-.00312592-.00676543-.00713826-.0037284-.01665679l-.00367901-.00111851c-.00111111.00351851-.00251852.0074642-.00481481.0122.00264197.00315309.00612345.00626914.0099753.00859506.00560495.00337531.01079013.00383703.01496297.00277778.00390123-.00107161.00713579-.00373334.00930863-.00733086.00217285-.00360742.00266667-.00693581.00251852-.01025433-.00037036-.00383704-.00190122-.00714567-.00464196-.01418765-.00212347-.00556544-.00303705-.00814815-.00320988-.01074321-.00009877-.00232592.00046914-.00421481.00153086-.00596049.0011605-.00192099.00279012-.00324197.00476543-.00380988.00222222-.00058025.00471605-.00030864.00708642.00111852.00548148.00328888.00572839.00636543.00259259.01456296z" fill="#053a82"/><path d="m.3407407.87666914.00785186.00350124c.00434567.00193827.0048642.00252592.00251851.01216296l.00323457.00144445.00395062-.01357038-.03990123-.0177753-.0074568.01201729.00325926.0014469c.0054568-.00812098.00627161-.00825432.01066668-.00628888l.00790123.00351111-.01876543.04217777c-.00237038.00533334-.00298765.00574815-.0094568.00287408l-.00118518.00271111.02158025.00961729.00120987-.00271112c-.00646913-.00287407-.0065679-.00361729-.00419753-.00895061z" fill="#053a82"/><path d="m.37888886.92946668.00007407.01077283c.00009876.00426173-.00044445.00540988-.00496296.0040321l-.00086421.00288396.01708642.00522715.00088889-.00288394c-.00271605-.00082963-.00338272-.00185186-.00353086-.00695557l-.00187655-.05499505-.00474073-.00145679-.0311358.04606419c-.00219754.00325185-.0034321.00367654-.00609877.0028568l-.00088888.00288394.01276542.00390617.00088889-.00288394c-.00434568-.00133087-.00432099-.00222963-.0014321-.00676297l.00528395-.00836048z" fill="#053a82"/><path d="m153.41 30.16-6.56 2.008 6.24 9.52.11-.032z" fill="#fff" transform="matrix(.00246914 0 0 -.00246914 0 1)"/><path d="m.43599996.90419506.00846914.00149631c.00469135.00082963.00533333.0012716.00538271.01119752l.00348148.00061729.00054321-.01413086-.04301234-.00758025-.00429629.01345432.00348148.00061729c.00335802-.0092.00409876-.00951852.0088642-.00868148l.00849382.00149628-.00802468.04546668c-.00098766.00574814-.00150619.00629876-.00844446.00507408l-.00051852.0029111.02328395.00410865.00049384-.00291111c-.00693828-.00123457-.00723458-.001921-.00622223-.00767903z" fill="#053a82"/><path d="m.49881477.96466174.00311112-.01333087-.00380248-.0001358c-.00239505.00887407-.00328394.00958765-.00787653.00943457l-.01133333-.00039506c-.00162964-.00005927-.00227162-.0005037-.00214816-.00372346l.00076544-.02167408.00837037.00029877c.00360493.00012592.00422222.00069629.0039753.00846914l.00365433.00012593.00071605-.02017778-.00367902-.00012593c-.0002716.00725432-.00098765.00810371-.00459259.00797778l-.008321-.00029877.00064199-.01918519c.00012346-.00325925.00039506-.00377036.00308642-.00367407l.00861729.00029876c.00456789.00015309.00535801.00057779.00713579.00959753l.00380248.00012347-.00204938-.01315556-.03535804-.00123456-.00007407.00301975c.00567901.00019258.0062963.00085925.00607408.0067037l-.00140741.04047901c-.00019753.00584692-.00081481.00646173-.00651851.00626173l-.00012347.00301729z" fill="#053a82"/><path d="m.5433086.91597285-.00039506-.00164198-.00037037-.00164938-.00019752-.00081976-.00017285-.00081481-.00017284-.00080247-.00014814-.00079259-.00017284-.00077778-.00014816-.00075802-.00014814-.00073828-.00012346-.00071605-.00012345-.00068889-.00012347-.00066172-.00012345-.00062963-.00004939-.00030123-.00004938-.00029383c-.0031111-.00096297-.00703703-.0015037-.01165432-.00118519-.00555555.00039506-.00948147.00222717-.01204938.00485185-.00288888.00296049-.00412345.00679753-.00385185.0105605.00022223.00322222.00130864.00595061.0028395.00824691.0022963.00311605.00637038.00552593.01155556.00918272.00432098.00269877.00730863.00483951.00935803.00729135.00155555.00209136.00234567.0041284.00251851.00686668.00022223.00325925-.00069136.00595061-.00229629.00786913-.00162963.00194073-.004.00311605-.00669136.00329877-.00604939.00042469-.00962963-.0019679-.01259259-.01150618l-.00367901.00119753c.00113579.00350865.00224691.00755061.00308641.01275062.00395062.00105926.0085926.00162963.01308642.00132098.00651853-.00046419.01103704-.00303951.01385185-.00630863.0025926-.00312593.0037037-.00715556.00340741-.01135309-.00029629-.00418519-.00177777-.00720494-.00380246-.00983704-.00251852-.00293086-.00565432-.00476544-.01195063-.00895061-.00493827-.00334569-.00716049-.00494816-.00879011-.00697284-.00140741-.00185186-.00202469-.00372346-.00217285-.00574815-.00014815-.0022395.00044445-.00427408.0017284-.00587407.00148148-.00173581.00367901-.00295062.00644444-.00314569.00637038-.00044198.00834568.00194074.01049382.0104568z" fill="#053a82"/><path d="m.62313577.94917038.00079012-.00021728.00076543-.00022964.00076543-.00024198.00074074-.00025185.00071605-.00026419.00071605-.00027654.00071605-.00028642.00066667-.00029877.00069135-.00031111.00064198-.00032346.00064197-.00033333.00064198-.00034569.00059258-.00035801.00061729-.00037037.0005679-.00038272.00056791-.00039259.00054321-.00040494.00054321-.00041728.00051851-.00042963.00051852-.00044197.00049383-.00045433.00046914-.00046419.00044444-.00047902.00044445-.0004889.00044445-.00050369.00039505-.00051359.00039507-.00052592.00039505-.00054074.00034569-.00055061.00034567-.00056296.00034568-.00057779.0002963-.00058765c.00301235-.00589382.00367902-.01386173.00088888-.02420987-.00279012-.01045433-.00777777-.01754323-.0142716-.0211605-.00614814-.00330865-.01323456-.00348148-.02039506-.00156296-.00718518.00192839-.01323457.00562222-.01688888.01155556-.00382717.00638518-.0045926.0150074-.00180248.02546172.00279013.01035062.00733334.01692839.01288889.02052593.00600001.00386666.01335803.00447407.02172839.00223702z" fill="#053a82"/><path d="m.60797526.89280494.00046914-.00011851.00046914-.00010865.00044444-.00009628.00046914-.00008643.00046914-.00007407.00046914-.0000642.00044443-.00004938.00046914-.00003951.00044444-.00002963.00046914-.00001482.00044445-.00000493.00044445.00000741.00044443.00001975.00046914.0000321.00044444.00004445.00044445.00005679.00041976.00006913.00044443.00008148.00044445.00009383.00044445.00010864.00041975.00011851.00041975.00013334.00044444.00014568.00041976.00015802.00041976.00017037.00041974.00018519.00041976.00019999.00039507.00020988.00041974.0002247.00039507.0002395.00041975.00025185.00039506.00026667c.00434568.00312592.00809877.00903703.01091357.01959013.00237038.0088642.00256791.01659011.000321.02217283-.00197531.00430124-.0060247.00775555-.01108642.00911606-.00511111.00135802-.01032099.00039505-.01419754-.00234569-.00474073-.00371111-.00841975-.01050123-.0108148-.01936543-.00281482-.01055308-.00254322-.01754568-.00034569-.02241482.00222222-.0046395.00614815-.0075432.01108642-.0088642z" fill="#fff"/><path d="m.67982711.88446173-.0033827.00143704c.00279012.00660742.00239505.00782223-.00091359.00922963l-.00725925.00307655-.00767903-.01810371c-.0013827-.00322963-.00133332-.00380987.00113581-.00484938l.0082963-.00353086c.00409876-.00172593.00508642-.00146668.01046913.00583456l.00345679-.00146666-.00755556-.01112099-.03266666.01386173.00118519.0027679c.00523456-.00221976.00604938-.00187161.00834568.00351111l.01582716.03727654c.00229629.00538272.00204938.00619259-.00325926.00844939l.00118518.00276789.02054322-.00872839-.0011605-.00277777c-.00637037.00271111-.00696296.00236296-.00928396-.00310617l-.00735802-.01735063.00735802-.00311605c.00328396-.00139753.00422223-.00111851.00720989.0059605l.00338271-.00143703z" fill="#053a82"/><path d="m.748716.86951112.0082963.00687901c.00333333.0026716.00387655.00380741-.00009877.00638272l.00165432.0025284.01498766-.00973334-.00165432-.00252593c-.00237036.00154321-.00358024.00139012-.00758024-.00178518l-.04333334-.03392099-.00417284.00271112.01528395.0534716c.00106173.00377036.00061728.00497778-.00172839.00650123l.00162963.00252593.01120987-.00727161-.00165432-.00252839c-.00380247.00246914-.00446914.00188148-.00609876-.00324939l-.00301235-.00942222z" fill="#053a82"/><path d="m301.98 53.844-5.75-3.735-3.28 10.899.09.058z" fill="#fff" transform="matrix(.00246914 0 0 -.00246914 0 1)"/><path d="m.78239502.78891852.02046914.04524445-.00017285.00015309-.04409877-.02319507-.01098764.01024199.00204938.00220987c.00409877-.00382962.00481482-.00367408.00864197.00040494l.02782717.02984197c.0039753.00428148.00412346.00504444.00004938.00883457l.00204937.00220988.01148149-.01070617-.00204938-.00220988c-.00375309.00350123-.00451852.00331852-.00849383-.00096544l-.02748148-.02944444.00012345-.00010617.04708642.0247679.00227161-.00212098-.02165431-.04825434.00014814-.00014568.02735802.02933088c.004.0042716.00419753.00497777.00019754.00870864l.00204937.0022.01508642-.01405432-.00207407-.00219753c-.00409877.0038395-.00488889.00369382-.00888888-.00059754l-.02755557-.02955308c-.00404937-.00434074-.00419753-.00507408-.00004938-.00894074l-.00207408-.00220988z" fill="#053a82"/><path d="m.8693086.77987161-.00879013-.0105037-.00239506.00295061c.00565432.00724445.00567901.00839261.00279013.01197038l-.00711111.00879505c-.00103704.00127408-.00177778.00151359-.0042963-.0005111l-.01683951-.01364691.00528396-.00652099c.0022716-.00280494.00308641-.0029605.0091358.00192839l.00232098-.00285432-.015679-.01270123-.002321.00285432c.00562963.00457036.00587655.00566173.00360494.00845926l-.00525925.00649136-.01491359-.01208642c-.00254321-.00205433-.00279012-.00258519-.00108641-.00466914l.00543209-.00671111c.00286419-.0035358.00367902-.00390618.01195062.00007654l.00239506-.00294568-.0117284-.00629629-.0222716.02750123.00234568.00188889c.00358024-.00443703.00446914-.00450371.00901234-.00082963l.03148149.02549137c.00456789.00368641.00469136.0045432.00108641.00899012l.00234568.00189135z" fill="#053a82"/><path d="m.87135798.7254568.00014815-.00039505.00012345-.00037038.00012347-.00039507.00012345-.00037036.00022222-.00076543.00017284-.00074074.00014814-.00074074.00012347-.00074074.00007407-.00074075.00007407-.00071605.00002469-.00069136v-.00069136l-.00002469-.00069136-.00007407-.00064197-.00007407-.00064198-.00009878-.00061727-.00012345-.00061729-.00007407-.00027161-.00009877-.00029629c-.0011111-.00380246-.00367901-.00674074-.00669136-.00861729-.00469135-.00291358-.00896296-.0031111-.01298766-.00153086-.00456789.00185185-.00777777.00525926-.01172838.01158025l-.01118519.01787654.0025679.00160494c.00311112-.00496296.00392593-.00506173.00888889-.00195062l.03432099.02143211c.00498765.00312592.00525925.00389628.00214815.00886419l.0025432.0016.01123458-.01797038-.00254322-.00160493c-.00301234.00481481-.00367901.00491358-.00874074.00175309l-.01506172-.00940741.00303703-.00488889.03083951.00212345.00649382-.01041975-.00254321-.00158024c-.00175308.00279012-.00296296.00358024-.00874073.00335801z" fill="#053a82"/><path d="m.84491354.7254568-.00017285-.00012345-.00014814-.00009877-.00014815-.00009876-.00017284-.00009878-.00014814-.00009876-.00012347-.00007407-.00014814-.00009877-.00014815-.00009876-.00012345-.00007407-.00012347-.00007408-.00012346-.00009876-.00012345-.00007407-.00009876-.00007409-.00012346-.00007407-.00009876-.00007407-.00009878-.00007408-.00009876-.00007407-.00009876-.00007407-.00009877-.00007407-.00007407-.00007409-.00017284-.00012345-.00014816-.00014815-.00012345-.00012345-.00012346-.00012346-.00009876-.00009876-.00009876-.00012347-.00007408-.00012345-.00007407-.00009877-.00004938-.00012345-.00002469-.00009877-.00002469-.00012345-.00002469-.00012347v-.00009876-.00012345l.00002469-.00012346.00002469-.00012346.00004938-.00012345.00004938-.00012345.00004938-.00012347.00007408-.00014815.00009876-.00012345.00007407-.00014815.00207408-.00333333c.00232098-.0037037.00469136-.00553087.00728395-.00622222.00301234-.00083952.00627161-.00012346.00933333.00177777.00390124.00244445.00592593.00493828.0065926.00834569.0005679.00320987-.00051852.00659258-.00291358.01039506l-.00244445.00392592z" fill="#fff"/><path d="m.90543205.7022963.00024692.00012347.00022222.00012345.00024691.00009877.00022223.00009876.00022222.00012346.00019753.00009876.00019752.00009876.00019754.00009878.00019753.00009876.00017284.00009877.00034568.00019752.00032098.00019753.0002963.00017285.00024691.00019753.00024693.00017283.00022221.00019754.00017284.00019753.00017284.00019753.00014814.00019754.00012347.00022221.00007407.00019753.00007408.00024691.00004938.00022223.00002469.00024691v.0002716l-.00002469.00027161-.00002469.00029631-.00007408.00029629-.00007407.00032098-.00004938.00017285-.00004938.00017283-.0000494.00017284-.00007407.00017284-.00007407.00019754-.00007407.00019752-.00007408.00019753-.00007407.00019753-.00009876.00022223-.00007408.00022222-.00009876.00022222-.00009878.00022223-.00012345.00024691-.00009877.00022223-.00012345.0002716-.00012346.00024691.00274075.00125926.00923456-.01985186-.00271605-.00125926c-.00256789.00553088-.00335803.0057037-.00866666.00320988l-.03671606-.01711111c-.00528394-.00246913-.00567901-.00316049-.0031111-.00866666l-.00274075-.00125926-.00920987.01975309.00274073.00128394c.00256791-.00550617.00335803-.00567901.00866667-.00320987z" fill="#053a82"/><path d="m.92651847.63281483.00061729.00054321.00059258.00051851.00056792.0005679.0005432.00054322.00051852.00054321.00049383.0005679.00046913.0005432.00041975.00056791.00041975.0005679.00039507.00059259.00037036.00056791.000321.00059259.00032099.00056789.00029629.0005926.00024691.00059259.00024692.0005926c.00145679.00350617.00133332.00703703.00004938.0105432-.00175309.00483951-.00562962.00814815-.01041975.00960494-.00629629.00187655-.01387654.00081481-.02182716-.00207407-.00920988-.00335803-.01503704-.00809877-.01765433-.01288888-.00237036-.00446915-.00249382-.00916051-.00079012-.01382716.00145679-.00397533.00323457-.00609877.00525926-.00723458.00261729-.00150617.00639506-.00123457.01237037-.00032099l.00056791-.00375308c-.00471605-.00069136-.00925927-.00160494-.01375309-.00264198-.00148148.00165433-.00274074.00330864-.00387655.00506174-.00165431.00249382-.00286419.00503703-.004.00807406-.0028642.00792593-.00261729.01503704.00007407.02079012.00313581.00676544.00972841.01204939.01911112.01543211.00990124.00362963.01804938.00414815.02511112.00145679.00595061-.00244445.01051851-.00738272.01328394-.01493828.00187655-.00513579.00185186-.01014815.00007408-.01474073-.00148148-.00395062-.00419753-.00740741-.00804939-.01064197z" fill="#053a82"/><path d="m.93535798.58244446.01071605-.00120988c.00422222-.00051852.0054321-.00012346.00451852.00451852l.00296296.00056791.00340741-.01755557-.00296296-.0005679c-.00054321.00279014-.00148148.00355557-.00654322.00422222l-.05451852.00760494-.00093826.0048889.04908641.02614814c.00345679.00185185.00400001.00301235.00345679.00577778l.00296296.00056789.00254322-.01311111-.00296296-.00056789c-.00083952.00444444-.00175309.00451851-.00656791.00212346l-.0088642-.00439507z" fill="#053a82"/><path d="m377.24 168.91-1.31-6.73-10.12 5.21.02.11z" fill="#fff" transform="matrix(.00246914 0 0 -.00246914 0 1)"/><path d="m.05432096.47234569.00000987-.00039506.00002716-.00037037.00004938-.00037037.0000642-.00037037.00008148-.00034568.00010123-.00034568.00011606-.00034567.00013333-.00034569.00014816-.00032098.00016296-.00032099.00017778-.00032099.00019505-.0002963.00020495-.00029629.00021975-.0002716.00023457-.00027161.00024443-.00024691.0002568-.00024691.00026913-.00024692.00027901-.00022222.00029136-.00019754.00030123-.00019753.00030865-.00017283.00032099-.00017284.00032839-.00014816.0003358-.00012345.00034322-.00012346.0003506-.00009876.00036051-.00007407.00036296-.00007408.00037037-.00004938.00037778-.00002469h.00038024c.00408889 0 .00740741.00330863.00740741.0074074 0 .00407407-.00331852.00740741-.00740741.00740741-.00408888 0-.0074074-.00333334-.0074074-.00740741z" fill="#0a4aff"/><path d="m.05432096.47234569.00000987-.00039506.00002716-.00037037.00004938-.00037037.0000642-.00037037.00008148-.00034568.00010123-.00034568.00011606-.00034567.00013333-.00034569.00014816-.00032098.00016296-.00032099.00017778-.00032099.00019505-.0002963.00020495-.00029629.00021975-.0002716.00023457-.00027161.00024443-.00024691.0002568-.00024691.00026913-.00024692.00027901-.00022222.00029136-.00019754.00030123-.00019753.00030865-.00017283.00032099-.00017284.00032839-.00014816.0003358-.00012345.00034322-.00012346.0003506-.00009876.00036051-.00007407.00036296-.00007408.00037037-.00004938.00037778-.00002469h.00038024c.00408889 0 .00740741.00330863.00740741.0074074 0 .00407407-.00331852.00740741-.00740741.00740741-.00408888 0-.0074074-.00333334-.0074074-.00740741z" fill="#053a82" stroke="#053a82" stroke-miterlimit="10.433" stroke-width=".002469"/><path d="m.92809872.46916051.00002469-.00037037.00002469-.00037037.00004938-.00037037.00004938-.00037037.00009878-.00037037.00009875-.00034568.00012347-.00034568.00012345-.00034569.00014815-.00032098.00017285-.00032098.00017283-.0002963.00019753-.00032099.00019753-.00027161.00022223-.00029629.00022222-.0002716.00024691-.00024692.00027161-.00024691.0002716-.00022222.0002716-.00022223.0002963-.00022222.00029629-.00017285.00029629-.00019751.000321-.00014816.00034568-.00014815.00032099-.00014814.00034568-.00009878.00034567-.00009876.00037038-.00009876.00037036-.00004939.00037038-.00004938.00037036-.00002469.00037038-.00002469c.00409876 0 .00740741.00330864.00740741.00740741s-.00330865.00740741-.00740741.00740741c-.00407408 0-.00740741-.00330864-.00740741-.00740741z" fill="#0a4aff"/><path d="m.92809872.46916051.00002469-.00037037.00002469-.00037037.00004938-.00037037.00004938-.00037037.00009878-.00037037.00009875-.00034568.00012347-.00034568.00012345-.00034569.00014815-.00032098.00017285-.00032098.00017283-.0002963.00019753-.00032099.00019753-.00027161.00022223-.00029629.00022222-.0002716.00024691-.00024692.00027161-.00024691.0002716-.00022222.0002716-.00022223.0002963-.00022222.00029629-.00017285.00029629-.00019751.000321-.00014816.00034568-.00014815.00032099-.00014814.00034568-.00009878.00034567-.00009876.00037038-.00009876.00037036-.00004939.00037038-.00004938.00037036-.00002469.00037038-.00002469c.00409876 0 .00740741.00330864.00740741.00740741s-.00330865.00740741-.00740741.00740741c-.00407408 0-.00740741-.00330864-.00740741-.00740741z" fill="#053a82" stroke="#053a82" stroke-miterlimit="10.433" stroke-width=".002469"/><path d="m.39382712.47634569v-.00096296-.00096297l-.00002469-.00091357v-.00091358-.0008889-.00086419-.00083951l.00002469-.00081481.00004938-.00079012.00004938-.00076543.00009878-.00074074.00009876-.00071606.00012346-.00069136.00017283-.00064196.00017284-.00064198.00024692-.00059259.00024691-.00056791.00032098-.00054321.00034569-.00051852.00039505-.00046913.00044445-.00046914.00024692-.00019753.00024691-.00019752.0002716-.00019754.00029631-.00019753.00029629-.00017284.0002963-.00017283.00034567-.00014816.000321-.00014815.00037036-.00014814.00037038-.00014816.00039505-.00012345.00041976-.00009877.00041976-.00009876.00044443-.00009877.00046914-.00009876.00046913-.00007407.00049383-.00007409.00051852-.00004938.00054321-.00004938.00054322-.00004938.00059258-.00002469.00059259-.00002469c.00496298-.00012346.01634569 0 .02624692 0 .01449384 0 .00429629-.01234567.02469136-.01234567h.02898765" fill="none" stroke="#000" stroke-miterlimit="10.433" stroke-width=".012346"/><path d="m.60079008.47627162v-.00096296-.00096297l.00002469-.00091358v-.00091357-.0008889-.00086419-.00083951l-.00002469-.00081481-.00004938-.00079012-.00004938-.00076543-.00009877-.00074074-.00009876-.00071605-.00012347-.00069137-.00017283-.00064198-.00017284-.00064196-.00024691-.0005926-.00024692-.00059259-.00032098-.00051852-.00034569-.00051852-.00039505-.00049382-.00044445-.00044445-.00024691-.00019753-.00024692-.00019754-.0002716-.00019753-.00029629-.00019752-.00029631-.00017284-.00029629-.00017285-.00034568-.00014814-.00032098-.00014815-.00037038-.00014816-.00037036-.00014814-.00039507-.00012346-.00041976-.00009876-.00041974-.00012346-.00044445-.00009876-.00046913-.00007407-.00046914-.00007409-.00049383-.00007407-.00051852-.00004938-.0005432-.00004938-.00054321-.00004938-.0005926-.0000247-.00059259-.00002469c-.00493827-.00012345-.01634567 0-.02622222 0-.01451852 0-.00432099-.01234568-.02469135-.01234568-.01513582 0-.01634569 0-.02901236 0" fill="none" stroke="#000" stroke-miterlimit="10.433" stroke-width=".012346"/><path d="m207.12 235.5h5.03v-8.81h-5.03z" fill="#fda65e" transform="matrix(.00246914 0 0 -.00246914 0 1)"/><path d="m207.12 226.69h5.03v8.81h-5.03z" fill="none" stroke="#fda65e" stroke-miterlimit="10.433" transform="matrix(.00246914 0 0 -.00246914 0 1)"/><path d="m189.15 235.55h5.02v-8.8h-5.02z" fill="#fda65e" transform="matrix(.00246914 0 0 -.00246914 0 1)"/><path d="m189.15 226.75h5.02v8.8h-5.02z" fill="none" stroke="#fda65e" stroke-miterlimit="10.433" transform="matrix(.00246914 0 0 -.00246914 0 1)"/><path d="m.512148.422889v.026543" fill="none" stroke="#000" stroke-miterlimit="10.433" stroke-width=".004938"/><path d="m.523259.422938v.026519" fill="none" stroke="#000" stroke-miterlimit="10.433" stroke-width=".004938"/><path d="m.468025.422914v.025037" fill="none" stroke="#000" stroke-miterlimit="10.433" stroke-width=".004938"/><path d="m.479309.422938v.026543" fill="none" stroke="#000" stroke-miterlimit="10.433" stroke-width=".004938"/><path d="m188.88 223.95 6.37-.5 3.5-2 .87-7.37-3.5-3-4.12.62-1.75 1.25-2.5-.5-2.87 3.75 1.87 4.5z" transform="matrix(.00246914 0 0 -.00246914 0 1)"/><path d="m188.88 223.95 6.37-.5 3.5-2 .87-7.37-3.5-3-4.12.62-1.75 1.25-2.5-.5-2.87 3.75 1.87 4.5z" fill="none" stroke="#000" stroke-miterlimit="10.433" transform="matrix(.00246914 0 0 -.00246914 0 1)"/><path d="m.50587651.47634569.0114074.00246914.00340741-.00740741.00987654.00185186.0077037-.00864198-.00493827-.01140741-.01081481-.0071111-.00708641-.00185186-.01111113.00061729s-.00246913.00493827-.00246913.00617284c0 .00123456.00032099.01637036.00032099.01637036z"/><path d="m.50587651.47634569.0114074.00246914.00340741-.00740741.00987654.00185186.0077037-.00864198-.00493827-.01140741-.01081481-.0071111-.00708641-.00185186-.01111113.00061729s-.00246913.00493827-.00246913.00617284c0 .00123456.00032099.01637036.00032099.01637036z" fill="none" stroke="#000" stroke-miterlimit="10.433" stroke-width=".002469"/><path d="m.4644691.45730866.0002716-.00046914.00029629-.00044445.00029631-.00044443.00029629-.00041976.0002963-.00039507.00029629-.00039505.000321-.00039507.00032098-.00037036.0002963-.00034569.00032098-.00034567.000321-.000321.00032098-.00029629.00032098-.0002963.000321-.0002716.00032098-.00024691.00032099-.00024692.00032098-.00022222.000321-.00019753.00029629-.00017283.00032098-.00017285.0002963-.00014815.00029631-.00009876.00029629-.00009877.00029629-.00009876.00027161-.00004938.0002716-.00002469.0002716-.00002469.00024692.00002469.00024691.00002469.00024691.00004938.00022223.00009876.00022222.00009877c.00224691.00128395.00170371.00637037-.00120988.01135802-.00293827.00498766-.0071358.00797531-.00938271.00671605-.0022716-.00128395-.00170371-.00637037.00120988-.01135802z" fill="#fda65e"/><path d="m.52879009.45666668-.0002716-.00046913-.00027162-.00044445-.00027161-.00044444-.00029629-.00044445-.00029629-.00041976-.0002963-.00039505-.0002963-.00039507-.0002963-.00039505-.00032098-.00034569-.00029629-.00034567-.000321-.00034569-.00032098-.00029629-.0002963-.0002963-.00032098-.0002716-.000321-.0002716-.00029629-.00024692-.00032099-.00022222-.00029629-.00019753-.00029631-.00019754-.00029629-.00014814-.00029629-.00014815-.0002963-.00012345-.00029629-.00009877-.0002716-.00007407-.00027161-.00007407-.00027162-.00002469-.00024691-.00002471-.00024691.00002471-.00024692.00002469-.00022221.00007407-.00022222.00007407-.00022222.00012346c-.00219754.00128395-.00165433.00649382.00118517.01158025.00283951.0051111.00693829.00817284.00913582.00686418.00219752-.00130863.00165431-.00649382-.00120988-.01160493z" fill="#fda65e"/><path d="m.47923453.46486422.00012345-.00046914.00012346-.00046914.00014814-.00044444.00014816-.00041976.00017284-.00041974.00014814-.00041976.00017284-.00039507.00017285-.00039505.00017283-.00037038.00019753-.00037036.00017285-.00034569.00019753-.00034567.00017284-.00032099.00019752-.00029631.00019754-.00029629.00019753-.0002716.00022222-.00024692.00019754-.00024691.00019752-.00022222.00019753-.00019754.00019753-.00019752.00022223-.00017284.00019753-.00012346.00019753-.00014814.00019752-.00009878.00019754-.00009876.00019753-.00004938.00019754-.00004938.00019753-.00002469h.00017283l.00019753.00002469.00017285.00004938c.00190122.00066667.00234567.00523457.00101234.01022222-.00135803.00496296-.004.00846914-.00590124.00782716-.00190123-.00066667-.00234568-.00523456-.00098765-.01019752z" fill="#fda65e"/><path d="m.51479009.46496298-.00012347-.00046914-.00014814-.00046914-.00012346-.00044444-.00014814-.00044444-.00017285-.00044445-.00014815-.00041975-.00017283-.00041976-.00014815-.00039505-.00017285-.00037038-.00019752-.00037036-.00017284-.00037038-.00017284-.00032098-.00019754-.00034568-.00019752-.00029631-.00017284-.00029629-.00019753-.00029629-.00019754-.00024692-.00019753-.00024691-.00019752-.00024691-.00019753-.00019754-.00019754-.00019753-.00019753-.00017283-.00019752-.00014815-.00019754-.00012345-.00019753-.00012347-.00019753-.00007407-.00017285-.00007407-.00019752-.00004939-.00017284-.00002469-.00019753.00002469-.00017285.00002469-.00017283.00004939c-.00185186.00066666-.0022963.00533333-.00098765.01041975.00130864.00508641.00387653.00866667.00572839.008.00185185-.00066666.00229629-.00533333.00098766-.01041975z" fill="#fda65e"/><path d="m.57855498.54432444-.0726997.0246528-.001953-.008116-.0108507.004774.005252.0216146.0108507-.004774-.001519-.006293.0704428-.023915.00034723-.00030382.0001302-.007639z"/></svg>