<?xml version="1.0" encoding="UTF-8" standalone="no"?>
<!-- Generator: Adobe Illustrator 19.0.0, SVG Export Plug-In . SVG Version: 6.00 Build 0)  -->

<svg
   xmlns:dc="http://purl.org/dc/elements/1.1/"
   xmlns:cc="http://creativecommons.org/ns#"
   xmlns:rdf="http://www.w3.org/1999/02/22-rdf-syntax-ns#"
   xmlns:svg="http://www.w3.org/2000/svg"
   xmlns="http://www.w3.org/2000/svg"
   xmlns:sodipodi="http://sodipodi.sourceforge.net/DTD/sodipodi-0.dtd"
   xmlns:inkscape="http://www.inkscape.org/namespaces/inkscape"
   version="1.1"
   id="Layer_1"
   x="0px"
   y="0px"
   viewBox="0 0 429.709 429.709"
   style="enable-background:new 0 0 429.709 429.709;"
   xml:space="preserve"
   sodipodi:docname="018-reddit.svg"
   inkscape:version="0.92.2 5c3e80d, 2017-08-06"><metadata
     id="metadata47"><rdf:RDF><cc:Work
         rdf:about=""><dc:format>image/svg+xml</dc:format><dc:type
           rdf:resource="http://purl.org/dc/dcmitype/StillImage" /></cc:Work></rdf:RDF></metadata><defs
     id="defs45" /><sodipodi:namedview
     pagecolor="#ffffff"
     bordercolor="#666666"
     borderopacity="1"
     objecttolerance="10"
     gridtolerance="10"
     guidetolerance="10"
     inkscape:pageopacity="0"
     inkscape:pageshadow="2"
     inkscape:window-width="1066"
     inkscape:window-height="574"
     id="namedview43"
     showgrid="false"
     inkscape:zoom="0.54920886"
     inkscape:cx="-21.849611"
     inkscape:cy="214.85451"
     inkscape:window-x="0"
     inkscape:window-y="0"
     inkscape:window-maximized="0"
     inkscape:current-layer="Layer_1" /><path
     style="fill:#760a0a;fill-opacity:1"
     d="M429.709,196.618c0-29.803-24.16-53.962-53.963-53.962c-14.926,0-28.41,6.085-38.176,15.881  c-30.177-19.463-68.73-31.866-111.072-33.801c0.026-17.978,8.078-34.737,22.104-45.989c14.051-11.271,32.198-15.492,49.775-11.588  l2.414,0.536c-0.024,0.605-0.091,1.198-0.091,1.809c0,24.878,20.168,45.046,45.046,45.046s45.046-20.168,45.046-45.046  c0-24.879-20.168-45.046-45.046-45.046c-15.997,0-30.01,8.362-38.002,20.929l-4.317-0.959c-24.51-5.446-49.807,0.442-69.395,16.156  c-19.564,15.695-30.792,39.074-30.818,64.152c-42.332,1.934-80.878,14.331-111.052,33.785c-9.767-9.798-23.271-15.866-38.2-15.866  C24.16,142.656,0,166.815,0,196.618c0,20.765,11.75,38.755,28.946,47.776c-1.306,6.68-1.993,13.51-1.993,20.462  c0,77.538,84.126,140.395,187.901,140.395s187.901-62.857,187.901-140.395c0-6.948-0.687-13.775-1.991-20.452  C417.961,235.381,429.709,217.385,429.709,196.618z M345.746,47.743c12,0,21.762,9.762,21.762,21.762  c0,11.999-9.762,21.761-21.762,21.761s-21.762-9.762-21.762-21.761C323.984,57.505,333.747,47.743,345.746,47.743z M23.284,196.618  c0-16.916,13.762-30.678,30.678-30.678c7.245,0,13.895,2.538,19.142,6.758c-16.412,14.08-29.118,30.631-37.007,48.804  C28.349,215.937,23.284,206.868,23.284,196.618z M333.784,345.477c-31.492,23.53-73.729,36.489-118.929,36.489  s-87.437-12.959-118.929-36.489c-29.462-22.013-45.688-50.645-45.688-80.621c0-29.977,16.226-58.609,45.688-80.622  c31.492-23.53,73.729-36.489,118.929-36.489s87.437,12.959,118.929,36.489c29.462,22.013,45.688,50.645,45.688,80.622  C379.471,294.832,363.246,323.464,333.784,345.477z M393.605,221.488c-7.891-18.17-20.596-34.716-37.005-48.794  c5.247-4.22,11.901-6.754,19.147-6.754c16.916,0,30.678,13.762,30.678,30.678C406.424,206.867,401.353,215.925,393.605,221.488z"
     id="path2" /><g
     id="g8"
     style="fill:#760a0a;fill-opacity:1"><circle
       style="fill:#760a0a;fill-opacity:1"
       cx="146.22"
       cy="232.07"
       r="24.57"
       id="circle4" /><circle
       style="fill:#760a0a;fill-opacity:1"
       cx="283.48"
       cy="232.07"
       r="24.57"
       id="circle6" /></g><path
     style="fill:#760a0a;fill-opacity:1"
     d="M273.079,291.773c-17.32,15.78-39.773,24.47-63.224,24.47c-26.332,0-50.729-10.612-68.696-29.881  c-4.384-4.704-11.751-4.96-16.454-0.575c-4.703,4.384-4.96,11.752-0.575,16.454c22.095,23.695,53.341,37.285,85.726,37.285  c29.266,0,57.288-10.847,78.905-30.543c4.752-4.33,5.096-11.694,0.765-16.446C285.197,287.788,277.838,287.44,273.079,291.773z"
     id="path10" /><g
     id="g12" /><g
     id="g14" /><g
     id="g16" /><g
     id="g18" /><g
     id="g20" /><g
     id="g22" /><g
     id="g24" /><g
     id="g26" /><g
     id="g28" /><g
     id="g30" /><g
     id="g32" /><g
     id="g34" /><g
     id="g36" /><g
     id="g38" /><g
     id="g40" /></svg>