<?xml version="1.0" encoding="UTF-8" standalone="no"?>
<!-- Generator: Adobe Illustrator 19.0.0, SVG Export Plug-In . SVG Version: 6.00 Build 0)  -->

<svg
   xmlns:dc="http://purl.org/dc/elements/1.1/"
   xmlns:cc="http://creativecommons.org/ns#"
   xmlns:rdf="http://www.w3.org/1999/02/22-rdf-syntax-ns#"
   xmlns:svg="http://www.w3.org/2000/svg"
   xmlns="http://www.w3.org/2000/svg"
   xmlns:sodipodi="http://sodipodi.sourceforge.net/DTD/sodipodi-0.dtd"
   xmlns:inkscape="http://www.inkscape.org/namespaces/inkscape"
   version="1.1"
   id="Layer_1"
   x="0px"
   y="0px"
   viewBox="0 0 393.541 393.541"
   style="enable-background:new 0 0 393.541 393.541;"
   xml:space="preserve"
   sodipodi:docname="026-medium.svg"
   inkscape:version="0.92.2 5c3e80d, 2017-08-06"><metadata
     id="metadata45"><rdf:RDF><cc:Work
         rdf:about=""><dc:format>image/svg+xml</dc:format><dc:type
           rdf:resource="http://purl.org/dc/dcmitype/StillImage" /></cc:Work></rdf:RDF></metadata><defs
     id="defs43" /><sodipodi:namedview
     pagecolor="#ffffff"
     bordercolor="#666666"
     borderopacity="1"
     objecttolerance="10"
     gridtolerance="10"
     guidetolerance="10"
     inkscape:pageopacity="0"
     inkscape:pageshadow="2"
     inkscape:window-width="1181"
     inkscape:window-height="636"
     id="namedview41"
     showgrid="false"
     inkscape:zoom="0.59968341"
     inkscape:cx="-20.010559"
     inkscape:cy="196.77049"
     inkscape:window-x="0"
     inkscape:window-y="0"
     inkscape:window-maximized="0"
     inkscape:current-layer="Layer_1" /><path
     style="fill:#a60e0e;fill-opacity:1"
     d="M384.045,363.079L262.84,304.812L261.927,40.68c-0.021-6.166,6.416-10.229,11.973-7.557  l114.908,55.256c2.893,1.391,4.733,4.318,4.733,7.528v261.201C393.54,361.989,388.443,365.194,384.045,363.079z"
     id="path2" /><path
     style="fill:#940c0c;fill-opacity:1"
     d="M262.84,304.812L131.66,241.74L257.948,33.818c2.231-3.673,6.886-5.054,10.759-3.192l116.514,56.029  c4.454,2.142,6.085,7.661,3.51,11.879L262.84,304.812z"
     id="path4" /><path
     style="fill:#820a0a;fill-opacity:1"
     d="M262.84,304.812L131.66,241.74L11.421,45.942c-3.35-5.455,2.479-11.914,8.248-9.14L131.66,90.655  L262.84,304.812z"
     id="path6" /><path
     style="fill:#760a0a;fill-opacity:1"
     d="M122.164,363.078l-118.41-56.94C1.459,305.034,0,302.713,0,300.167V37.548  c0-4.726,4.937-7.831,9.197-5.782L131.66,90.655v266.452C131.66,361.988,126.562,365.193,122.164,363.078z"
     id="path8" /><g
     id="g10" /><g
     id="g12" /><g
     id="g14" /><g
     id="g16" /><g
     id="g18" /><g
     id="g20" /><g
     id="g22" /><g
     id="g24" /><g
     id="g26" /><g
     id="g28" /><g
     id="g30" /><g
     id="g32" /><g
     id="g34" /><g
     id="g36" /><g
     id="g38" /></svg>